<svg width="626" height="584" viewBox="0 0 626 584" fill="none" xmlns="http://www.w3.org/2000/svg">
<path d="M446.828 257.656H277.274C272.576 257.651 268.072 255.782 264.75 252.459C261.428 249.136 259.56 244.631 259.555 239.932V18.5799C259.56 13.8809 261.429 9.37577 264.75 6.05303C268.072 2.73029 272.576 0.861252 277.274 0.855957H446.828C451.526 0.861254 456.03 2.73029 459.351 6.05303C462.673 9.37577 464.542 13.8809 464.547 18.5799V239.932C464.542 244.631 462.673 249.136 459.352 252.459C456.03 255.782 451.526 257.651 446.828 257.656Z" fill="#F0F0F0"/>
<path d="M446.828 258.512H277.274C272.349 258.506 267.628 256.547 264.146 253.064C260.663 249.58 258.705 244.858 258.699 239.932V18.58C258.705 13.654 260.663 8.93139 264.146 5.44818C267.628 1.96497 272.349 0.00563447 277.274 0H446.828C451.753 0.00554835 456.474 1.96484 459.956 5.44806C463.439 8.93127 465.397 13.6539 465.403 18.58V239.932C465.397 244.858 463.439 249.581 459.956 253.064C456.474 256.547 451.753 258.506 446.828 258.512ZM277.274 1.712C272.803 1.71704 268.517 3.49582 265.355 6.65809C262.194 9.82036 260.416 14.1079 260.411 18.58V239.932C260.416 244.404 262.194 248.691 265.355 251.854C268.517 255.016 272.803 256.795 277.274 256.8H446.828C451.299 256.795 455.585 255.016 458.747 251.854C461.908 248.692 463.687 244.404 463.691 239.932V18.58C463.686 14.1078 461.908 9.82025 458.747 6.65797C455.585 3.4957 451.299 1.71696 446.828 1.712H277.274Z" fill="#FF2564"/>
<path d="M359.051 285.051C375.976 285.051 389.697 271.327 389.697 254.397C389.697 237.467 375.976 223.743 359.051 223.743C342.126 223.743 328.405 237.467 328.405 254.397C328.405 271.327 342.126 285.051 359.051 285.051Z" fill="#FF2564"/>
<path d="M354.87 270.351C354.341 270.351 353.819 270.228 353.346 269.991C352.872 269.754 352.461 269.41 352.143 268.987L343.783 257.836C343.514 257.478 343.319 257.07 343.208 256.636C343.097 256.203 343.072 255.751 343.135 255.308C343.199 254.865 343.349 254.438 343.577 254.053C343.805 253.668 344.107 253.331 344.465 253.062C344.823 252.794 345.23 252.598 345.664 252.487C346.098 252.376 346.549 252.351 346.992 252.415C347.435 252.478 347.862 252.628 348.247 252.856C348.632 253.084 348.968 253.386 349.237 253.744L354.707 261.039L368.755 239.961C369.258 239.211 370.037 238.692 370.922 238.516C371.808 238.341 372.726 238.523 373.477 239.024C374.227 239.524 374.749 240.302 374.928 241.187C375.106 242.072 374.926 242.991 374.428 243.744L357.707 268.832C357.404 269.286 356.998 269.661 356.521 269.925C356.043 270.189 355.51 270.335 354.965 270.35C354.934 270.35 354.902 270.351 354.87 270.351Z" fill="white"/>
<path d="M332.462 376.034H7.27396C5.34547 376.031 3.49661 375.264 2.13296 373.9C0.769313 372.536 0.00223938 370.687 1.52588e-05 368.758V74.2931C0.00216705 72.364 0.769219 70.5146 2.13288 69.1506C3.49654 67.7865 5.34545 67.0192 7.27396 67.0171H332.462C334.39 67.0192 336.239 67.7865 337.603 69.1506C338.967 70.5146 339.734 72.364 339.736 74.2931V368.758C339.734 370.687 338.967 372.536 337.603 373.9C336.239 375.264 334.39 376.031 332.462 376.034Z" fill="#3F3D56"/>
<path d="M325.616 369.186H14.12C12.1915 369.183 10.3427 368.416 8.97901 367.052C7.61537 365.688 6.84829 363.839 6.84607 361.91V81.1411C6.84822 79.2121 7.61527 77.3626 8.97894 75.9986C10.3426 74.6345 12.1915 73.8673 14.12 73.8651H325.616C327.544 73.8673 329.393 74.6345 330.757 75.9986C332.121 77.3626 332.888 79.2121 332.89 81.1411V361.91C332.888 363.839 332.121 365.688 330.757 367.052C329.393 368.416 327.544 369.183 325.616 369.186Z" fill="white"/>
<path d="M29.9462 104.368C66.6045 103.73 103.267 103.639 139.933 104.093C176.594 104.55 213.243 105.556 249.879 107.11C270.437 107.982 290.987 109.027 311.528 110.244C313.179 110.342 313.173 107.773 311.528 107.676C274.929 105.51 238.302 103.889 201.649 102.813C165.001 101.74 128.342 101.216 91.6727 101.24C71.0961 101.254 50.5206 101.44 29.9462 101.8C28.296 101.828 28.2908 104.397 29.9462 104.368V104.368Z" fill="#3F3D56"/>
<path d="M285.42 88.2658L301.45 87.0724C303.087 86.9505 303.101 84.3815 301.45 84.5044L285.42 85.6978C283.783 85.8197 283.769 88.3887 285.42 88.2658Z" fill="#3F3D56"/>
<path d="M285.42 103.674L301.45 102.48C303.087 102.358 303.101 99.7895 301.45 99.9124L285.42 101.106C283.783 101.228 283.769 103.797 285.42 103.674Z" fill="#3F3D56"/>
<path d="M284.214 96.6373L307.005 98.7084C308.65 98.8579 308.64 96.2889 307.005 96.1404L284.214 94.0693C282.57 93.9198 282.58 96.4887 284.214 96.6373Z" fill="#3F3D56"/>
<path d="M39.4327 84.8121C38.318 84.8052 37.2259 85.1267 36.2926 85.7364C35.3593 86.3461 34.626 87.2171 34.1842 88.2409C33.69 89.2428 33.5374 90.3791 33.7499 91.476C33.9623 92.5729 34.528 93.57 35.3606 94.3149C36.1432 94.9809 37.0819 95.4376 38.0889 95.6423C39.0959 95.8469 40.1383 95.7928 41.1188 95.4851C42.1215 95.1348 42.9909 94.4822 43.6075 93.6172C44.2241 92.7522 44.5575 91.7173 44.5618 90.6549C44.6066 89.4763 44.2874 88.3124 43.6476 87.3217C43.0078 86.3309 42.0785 85.5613 40.986 85.1174C40.6577 85.0282 40.3075 85.0725 40.0118 85.2404C39.716 85.4084 39.4986 85.6866 39.407 86.0143C39.326 86.3423 39.3738 86.6889 39.5406 86.9827C39.7074 87.2765 39.9804 87.4952 40.3035 87.5937C40.5272 87.6802 40.0991 87.4837 40.308 87.5976C40.3939 87.6444 40.4814 87.6867 40.5657 87.7366C40.6375 87.7791 40.7061 87.8256 40.7758 87.8711C41.0155 88.0276 40.6589 87.7563 40.812 87.8969C40.9448 88.0189 41.0764 88.1379 41.1971 88.2725C41.2428 88.3233 41.4217 88.4648 41.2827 88.3659C41.1763 88.2903 41.2417 88.308 41.2827 88.3688C41.3138 88.4149 41.3466 88.4597 41.3774 88.5061C41.4774 88.6576 41.5684 88.8149 41.6498 88.9772C41.6687 89.0148 41.6859 89.0532 41.7051 89.0906C41.741 89.1606 41.7932 89.179 41.7087 89.0913C41.6279 89.0075 41.6793 89.0132 41.7082 89.0938C41.7272 89.1468 41.7479 89.1992 41.7664 89.2524C41.8266 89.4256 41.8771 89.602 41.9177 89.7808C41.9366 89.8634 41.9517 89.9466 41.9678 90.0297C42.0252 90.3246 41.9595 89.8464 41.9734 90.0655C41.9849 90.2483 41.9984 90.4293 41.9952 90.6129C41.9938 90.6969 41.9901 90.7808 41.9843 90.8646C41.9813 90.9064 41.9767 90.9481 41.9739 90.9899C41.9606 91.1914 41.9602 90.9163 41.9884 90.8975C41.9297 91.0685 41.8908 91.2457 41.8724 91.4256C41.8494 91.5054 41.8221 91.5835 41.7965 91.6625C41.7072 91.938 41.8803 91.5123 41.7851 91.7006C41.7068 91.8624 41.6192 92.0195 41.5229 92.1712C41.4811 92.2347 41.3234 92.3782 41.4523 92.2783C41.5923 92.17 41.379 92.3566 41.3334 92.4046C41.275 92.4663 41.2143 92.5258 41.1514 92.5832C41.1111 92.6225 41.0686 92.6595 41.0241 92.6939C41.0159 92.6898 41.2385 92.5452 41.1186 92.6217C40.966 92.719 40.8216 92.8231 40.6609 92.9078C40.6421 92.9177 40.4367 93.0129 40.4375 93.0163C40.4286 92.9816 40.7017 92.9201 40.5143 92.9807C40.4749 92.9934 40.4363 93.0088 40.397 93.022C40.2264 93.0795 40.0522 93.1259 39.8756 93.161C39.8351 93.169 39.7924 93.1731 39.7525 93.1834C39.6199 93.2177 39.8794 93.1633 39.8871 93.1678C39.7891 93.1636 39.6909 93.1723 39.595 93.1937C39.4129 93.2041 39.2303 93.2041 39.0482 93.1936C39.0061 93.1912 38.964 93.187 38.9219 93.1845C38.8241 93.1788 38.7523 93.1083 38.8825 93.1849C38.9829 93.2439 38.9745 93.2009 38.8856 93.1844C38.844 93.1767 38.8022 93.1702 38.7606 93.1624C38.5803 93.1287 38.402 93.085 38.2266 93.0316C38.1322 93.0028 38.0396 92.9693 37.9465 92.9368C37.9059 92.925 37.8664 92.9098 37.8284 92.8913C37.8278 92.8807 38.0685 93.0063 37.9414 92.9378C37.7811 92.8514 37.6153 92.7789 37.4587 92.6845C37.3752 92.634 37.2949 92.5792 37.2137 92.5252C37.1779 92.5037 37.144 92.4794 37.1121 92.4525C37.1148 92.4416 37.3111 92.6236 37.208 92.5254C37.0777 92.4011 36.9383 92.2899 36.8148 92.1576C36.7866 92.1273 36.7599 92.0956 36.7318 92.0653L36.7045 92.0342C36.6349 91.9491 36.6336 91.9495 36.7006 92.0354C36.7687 92.0555 36.7656 92.1301 36.701 92.0331C36.678 91.9986 36.6536 91.965 36.6306 91.9304C36.5264 91.7818 36.4375 91.623 36.3653 91.4565C36.3715 91.4516 36.4765 91.7654 36.3962 91.5286C36.3811 91.4838 36.364 91.4398 36.3492 91.395C36.3197 91.306 36.2937 91.2161 36.2713 91.1251C36.2491 91.035 36.2377 90.9421 36.2153 90.8524C36.1776 90.7012 36.2373 90.9717 36.2305 90.965C36.2091 90.9438 36.2182 90.8127 36.2166 90.7813C36.2064 90.5798 36.2293 90.3843 36.2329 90.184C36.2357 90.0289 36.2201 90.3049 36.2168 90.2968C36.2176 90.2503 36.2258 90.2043 36.2412 90.1604C36.2644 90.0548 36.2861 89.9493 36.3145 89.8449C36.3471 89.7253 36.3846 89.6071 36.427 89.4905C36.4428 89.4468 36.4622 89.4038 36.4769 89.3598C36.5309 89.1985 36.3699 89.5545 36.4587 89.4091C36.5808 89.2091 36.6718 88.9926 36.8015 88.7951C36.8322 88.7482 37.019 88.4874 36.9198 88.6191C36.8211 88.7502 37.0213 88.5016 37.0592 88.4594C37.2167 88.284 37.4018 88.14 37.5649 87.9721C37.6614 87.8727 37.4975 88.0211 37.4878 88.028C37.5383 87.9919 37.5878 87.9544 37.6389 87.9192C37.728 87.8578 37.8193 87.7997 37.9128 87.7449C38.0181 87.6832 38.1372 87.6372 38.2393 87.5719C38.3598 87.4947 38.147 87.6057 38.1432 87.6081C38.1983 87.5807 38.2559 87.5588 38.3152 87.5425C38.4146 87.5073 38.8469 87.3206 38.9376 87.379C38.9334 87.3764 38.6093 87.4051 38.8713 87.3883C38.9333 87.3843 38.9949 87.3782 39.057 87.3757C39.1824 87.3705 39.3074 87.3736 39.4327 87.3801C39.7725 87.3779 40.0977 87.2419 40.3379 87.0016C40.5782 86.7613 40.7141 86.436 40.7163 86.0961C40.7091 85.7579 40.5715 85.4355 40.3323 85.1962C40.0932 84.957 39.7709 84.8194 39.4327 84.8121Z" fill="#3F3D56"/>
<path d="M57.4036 84.8121C56.2889 84.8052 55.1968 85.1267 54.2635 85.7364C53.3302 86.3461 52.5969 87.2171 52.1551 88.2409C51.6609 89.2428 51.5083 90.3791 51.7208 91.476C51.9332 92.5729 52.499 93.57 53.3315 94.3149C54.1141 94.9809 55.0528 95.4376 56.0598 95.6423C57.0668 95.8469 58.1093 95.7928 59.0897 95.4851C60.0924 95.1348 60.9618 94.4822 61.5784 93.6172C62.195 92.7522 62.5284 91.7173 62.5327 90.6549C62.5775 89.4763 62.2583 88.3124 61.6185 87.3217C60.9787 86.3309 60.0494 85.5613 58.9569 85.1174C58.6287 85.0282 58.2785 85.0725 57.9827 85.2404C57.6869 85.4084 57.4695 85.6866 57.3779 86.0143C57.2969 86.3423 57.3447 86.6889 57.5115 86.9827C57.6783 87.2765 57.9513 87.4952 58.2744 87.5937C58.4981 87.6802 58.0701 87.4837 58.2789 87.5976C58.3648 87.6444 58.4523 87.6867 58.5367 87.7366C58.6084 87.7791 58.677 87.8256 58.7468 87.8711C58.9864 88.0276 58.6298 87.7563 58.7829 87.8969C58.9158 88.0189 59.0474 88.1379 59.1681 88.2725C59.2137 88.3233 59.3926 88.4648 59.2536 88.3659C59.1473 88.2903 59.2126 88.308 59.2536 88.3688C59.2847 88.4149 59.3176 88.4597 59.3483 88.5061C59.4484 88.6576 59.5393 88.8149 59.6207 88.9772C59.6396 89.0148 59.6568 89.0532 59.676 89.0906C59.712 89.1606 59.7641 89.179 59.6796 89.0913C59.5988 89.0075 59.6502 89.0132 59.6791 89.0938C59.6981 89.1468 59.7188 89.1992 59.7373 89.2524C59.7975 89.4256 59.848 89.602 59.8886 89.7808C59.9075 89.8634 59.9226 89.9466 59.9388 90.0297C59.9961 90.3246 59.9304 89.8464 59.9443 90.0655C59.9558 90.2483 59.9693 90.4293 59.9661 90.6129C59.9647 90.6969 59.961 90.7808 59.9552 90.8646C59.9522 90.9064 59.9476 90.9481 59.9448 90.9899C59.9315 91.1914 59.9311 90.9163 59.9593 90.8975C59.9006 91.0685 59.8617 91.2457 59.8433 91.4256C59.8203 91.5054 59.793 91.5835 59.7674 91.6625C59.6781 91.938 59.8512 91.5123 59.7561 91.7006C59.6777 91.8624 59.5902 92.0195 59.4938 92.1712C59.452 92.2347 59.2943 92.3782 59.4232 92.2783C59.5632 92.17 59.3499 92.3566 59.3044 92.4046C59.2459 92.4663 59.1852 92.5258 59.1223 92.5832C59.0821 92.6225 59.0395 92.6595 58.995 92.6939C58.9868 92.6898 59.2095 92.5452 59.0895 92.6217C58.9369 92.719 58.7925 92.8231 58.6318 92.9078C58.6131 92.9177 58.4076 93.0129 58.4084 93.0163C58.3996 92.9816 58.6726 92.9201 58.4852 92.9807C58.4458 92.9934 58.4072 93.0088 58.3679 93.022C58.1973 93.0795 58.0231 93.1259 57.8465 93.161C57.8061 93.169 57.7633 93.1731 57.7235 93.1834C57.5908 93.2177 57.8503 93.1633 57.8581 93.1678C57.76 93.1636 57.6618 93.1723 57.566 93.1937C57.3838 93.2041 57.2013 93.2041 57.0191 93.1936C56.977 93.1912 56.9349 93.187 56.8928 93.1845C56.795 93.1788 56.7232 93.1083 56.8534 93.1849C56.9538 93.2439 56.9455 93.2009 56.8565 93.1844C56.8149 93.1767 56.7731 93.1702 56.7315 93.1624C56.5512 93.1287 56.3729 93.085 56.1975 93.0316C56.1031 93.0028 56.0106 92.9693 55.9174 92.9368C55.8768 92.925 55.8373 92.9098 55.7993 92.8913C55.7988 92.8807 56.0394 93.0063 55.9124 92.9378C55.752 92.8514 55.5862 92.7789 55.4296 92.6845C55.3461 92.634 55.2658 92.5792 55.1846 92.5252C55.1488 92.5037 55.1149 92.4794 55.083 92.4525C55.0857 92.4416 55.282 92.6236 55.1789 92.5254C55.0486 92.4011 54.9092 92.2899 54.7858 92.1576C54.7575 92.1273 54.7308 92.0956 54.7027 92.0653L54.6754 92.0342C54.6059 91.9491 54.6046 91.9495 54.6716 92.0354C54.7396 92.0555 54.7365 92.1301 54.6719 92.0331C54.6489 91.9986 54.6245 91.965 54.6015 91.9304C54.4973 91.7818 54.4084 91.623 54.3362 91.4565C54.3425 91.4516 54.4474 91.7654 54.3672 91.5286C54.352 91.4838 54.3349 91.4398 54.3201 91.395C54.2906 91.306 54.2646 91.2161 54.2422 91.1251C54.22 91.035 54.2086 90.9421 54.1862 90.8524C54.1485 90.7012 54.2083 90.9717 54.2014 90.965C54.18 90.9438 54.1891 90.8127 54.1875 90.7813C54.1773 90.5798 54.2002 90.3843 54.2038 90.184C54.2066 90.0289 54.191 90.3049 54.1877 90.2968C54.1885 90.2503 54.1968 90.2043 54.2121 90.1604C54.2353 90.0548 54.257 89.9493 54.2854 89.8449C54.318 89.7253 54.3555 89.6071 54.3979 89.4905C54.4138 89.4468 54.4331 89.4038 54.4478 89.3598C54.5019 89.1985 54.3409 89.5545 54.4296 89.4091C54.5518 89.2091 54.6427 88.9926 54.7724 88.7951C54.8031 88.7482 54.9899 88.4874 54.8908 88.6191C54.792 88.7502 54.9922 88.5016 55.0301 88.4594C55.1876 88.284 55.3728 88.14 55.5358 87.9721C55.6323 87.8727 55.4684 88.0211 55.4588 88.028C55.5092 87.9919 55.5587 87.9544 55.6098 87.9192C55.6989 87.8578 55.7902 87.7997 55.8837 87.7449C55.989 87.6832 56.1081 87.6372 56.2102 87.5719C56.3308 87.4947 56.118 87.6057 56.1142 87.6081C56.1692 87.5807 56.2268 87.5588 56.2861 87.5425C56.3855 87.5073 56.8178 87.3206 56.9085 87.379C56.9044 87.3764 56.5802 87.4051 56.8423 87.3883C56.9042 87.3843 56.9658 87.3782 57.0279 87.3757C57.1533 87.3705 57.2783 87.3736 57.4036 87.3801C57.7434 87.3779 58.0686 87.2419 58.3088 87.0016C58.5491 86.7613 58.685 86.436 58.6873 86.0961C58.68 85.7579 58.5424 85.4355 58.3032 85.1962C58.0641 84.957 57.7418 84.8194 57.4036 84.8121Z" fill="#3F3D56"/>
<path d="M75.3745 84.8121C74.2598 84.8052 73.1677 85.1267 72.2344 85.7364C71.3011 86.3461 70.5679 87.2171 70.1261 88.2409C69.6318 89.2428 69.4792 90.3791 69.6917 91.476C69.9041 92.5729 70.4699 93.57 71.3024 94.3149C72.0851 94.9809 73.0237 95.4376 74.0307 95.6423C75.0377 95.8469 76.0802 95.7928 77.0606 95.4851C78.0633 95.1348 78.9327 94.4822 79.5493 93.6172C80.1659 92.7522 80.4993 91.7173 80.5036 90.6549C80.5484 89.4763 80.2292 88.3124 79.5894 87.3217C78.9496 86.3309 78.0203 85.5613 76.9278 85.1174C76.5996 85.0282 76.2494 85.0725 75.9536 85.2404C75.6578 85.4084 75.4404 85.6866 75.3488 86.0143C75.2678 86.3423 75.3156 86.6889 75.4824 86.9827C75.6492 87.2765 75.9222 87.4952 76.2453 87.5937C76.469 87.6802 76.041 87.4837 76.2499 87.5976C76.3357 87.6444 76.4232 87.6867 76.5076 87.7366C76.5793 87.7791 76.6479 87.8256 76.7177 87.8711C76.9573 88.0276 76.6007 87.7563 76.7538 87.8969C76.8867 88.0189 77.0183 88.1379 77.139 88.2725C77.1846 88.3233 77.3635 88.4648 77.2245 88.3659C77.1182 88.2903 77.1835 88.308 77.2245 88.3688C77.2556 88.4149 77.2884 88.4597 77.3191 88.5061C77.4192 88.6576 77.5102 88.8149 77.5916 88.9772C77.6105 89.0148 77.6277 89.0532 77.6469 89.0906C77.6828 89.1606 77.735 89.179 77.6504 89.0913C77.5697 89.0075 77.6211 89.0132 77.65 89.0938C77.669 89.1468 77.6897 89.1992 77.7082 89.2524C77.7684 89.4256 77.8189 89.602 77.8595 89.7808C77.8783 89.8634 77.8935 89.9466 77.9096 90.0297C77.967 90.3246 77.9013 89.8464 77.9151 90.0655C77.9267 90.2483 77.9402 90.4293 77.937 90.6129C77.9356 90.6969 77.9319 90.7808 77.9261 90.8646C77.9231 90.9064 77.9185 90.9481 77.9157 90.9899C77.9024 91.1914 77.902 90.9163 77.9302 90.8975C77.8715 91.0685 77.8325 91.2457 77.8141 91.4256C77.7911 91.5054 77.7639 91.5835 77.7383 91.6625C77.649 91.938 77.8221 91.5123 77.7269 91.7006C77.6486 91.8624 77.561 92.0195 77.4647 92.1712C77.4229 92.2347 77.2652 92.3782 77.3941 92.2783C77.5341 92.17 77.3208 92.3566 77.2752 92.4046C77.2168 92.4663 77.1561 92.5258 77.0932 92.5832C77.0529 92.6225 77.0104 92.6595 76.9659 92.6939C76.9577 92.6898 77.1803 92.5452 77.0603 92.6217C76.9078 92.719 76.7634 92.8231 76.6027 92.9078C76.5839 92.9177 76.3784 93.0129 76.3793 93.0163C76.3704 92.9816 76.6435 92.9201 76.456 92.9807C76.4167 92.9934 76.3781 93.0088 76.3388 93.022C76.1682 93.0795 75.994 93.1259 75.8174 93.161C75.7769 93.169 75.7342 93.1731 75.6943 93.1834C75.5616 93.2177 75.8211 93.1633 75.8289 93.1678C75.7308 93.1636 75.6326 93.1723 75.5368 93.1937C75.3547 93.2041 75.1721 93.2041 74.99 93.1936C74.9479 93.1912 74.9058 93.187 74.8637 93.1845C74.7659 93.1788 74.6941 93.1083 74.8243 93.1849C74.9247 93.2439 74.9163 93.2009 74.8274 93.1844C74.7857 93.1767 74.7439 93.1702 74.7023 93.1624C74.5221 93.1287 74.3438 93.085 74.1684 93.0316C74.074 93.0028 73.9814 92.9693 73.8883 92.9368C73.8477 92.925 73.8082 92.9098 73.7702 92.8913C73.7696 92.8807 74.0103 93.0063 73.8832 92.9378C73.7229 92.8514 73.5571 92.7789 73.4005 92.6845C73.3169 92.634 73.2367 92.5792 73.1554 92.5252C73.1197 92.5037 73.0857 92.4794 73.0539 92.4525C73.0565 92.4416 73.2529 92.6236 73.1498 92.5254C73.0195 92.4011 72.8801 92.2899 72.7566 92.1576C72.7284 92.1273 72.7017 92.0956 72.6735 92.0653L72.6463 92.0342C72.5767 91.9491 72.5754 91.9495 72.6424 92.0354C72.7105 92.0555 72.7074 92.1301 72.6428 92.0331C72.6198 91.9986 72.5954 91.965 72.5724 91.9304C72.4682 91.7818 72.3793 91.623 72.3071 91.4565C72.3133 91.4516 72.4183 91.7654 72.338 91.5286C72.3229 91.4838 72.3058 91.4398 72.291 91.395C72.2615 91.306 72.2355 91.2161 72.2131 91.1251C72.1909 91.035 72.1795 90.9421 72.1571 90.8524C72.1194 90.7012 72.1792 90.9717 72.1723 90.965C72.151 90.9438 72.1601 90.8127 72.1585 90.7813C72.1482 90.5798 72.1711 90.3843 72.1747 90.184C72.1775 90.0289 72.1619 90.3049 72.1587 90.2968C72.1594 90.2503 72.1677 90.2043 72.183 90.1604C72.2063 90.0548 72.2279 89.9493 72.2563 89.8449C72.2889 89.7253 72.3264 89.6071 72.3688 89.4905C72.3847 89.4468 72.404 89.4038 72.4187 89.3598C72.4728 89.1985 72.3118 89.5545 72.4005 89.4091C72.5227 89.2091 72.6136 88.9926 72.7433 88.7951C72.774 88.7482 72.9608 88.4874 72.8617 88.6191C72.7629 88.7502 72.9631 88.5016 73.001 88.4594C73.1585 88.284 73.3437 88.14 73.5067 87.9721C73.6032 87.8727 73.4393 88.0211 73.4297 88.028C73.4802 87.9919 73.5296 87.9544 73.5807 87.9192C73.6698 87.8578 73.7611 87.7997 73.8546 87.7449C73.9599 87.6832 74.079 87.6372 74.1811 87.5719C74.3017 87.4947 74.0889 87.6057 74.0851 87.6081C74.1401 87.5807 74.1977 87.5588 74.257 87.5425C74.3564 87.5073 74.7887 87.3206 74.8794 87.379C74.8753 87.3764 74.5511 87.4051 74.8132 87.3883C74.8751 87.3843 74.9368 87.3782 74.9988 87.3757C75.1242 87.3705 75.2492 87.3736 75.3745 87.3801C75.7143 87.3779 76.0395 87.2419 76.2797 87.0016C76.52 86.7613 76.6559 86.436 76.6582 86.0961C76.6509 85.7579 76.5133 85.4355 76.2742 85.1962C76.035 84.957 75.7127 84.8194 75.3745 84.8121Z" fill="#3F3D56"/>
<path d="M37.8698 152.25L39.0146 196.081L40.1593 239.912C40.3038 245.443 39.5227 252.986 45.131 256.226C47.4705 257.577 50.2677 257.874 52.9191 257.947C56.4389 258.045 59.9699 257.973 63.4909 257.976L107.349 258.023C113.111 258.029 119.44 257.861 123.569 253.219C127.015 249.343 127.991 243.971 128.337 238.958C128.793 232.342 128.574 225.644 128.633 219.015L128.83 196.987L129.027 174.959C129.087 168.267 129.403 161.52 129.11 154.833C128.886 149.73 128.024 144.281 124.603 140.271C120.707 135.703 114.547 135.086 108.928 134.906C94.3962 134.441 79.8618 134.048 65.329 133.619C61.9856 133.521 58.6325 133.341 55.2871 133.386C52.3121 133.328 49.3492 133.782 46.5279 134.728C41.8291 136.487 38.1586 140.708 38.322 145.944C38.3326 147.04 38.5746 148.122 39.0321 149.119C39.4896 150.115 40.1523 151.004 40.9769 151.726C42.231 152.788 44.0558 150.98 42.7922 149.911C39.3672 147.012 41.0259 141.582 44.0199 139.01C48.3578 135.283 55.1584 135.887 60.4481 136.043L101.617 137.258C104.81 137.352 108.011 137.384 111.2 137.572C114.047 137.739 117.021 138.109 119.568 139.48C123.974 141.852 125.694 146.717 126.273 151.422C127.001 157.343 126.563 163.452 126.509 169.398L126.322 190.357L125.951 231.847C125.906 236.893 125.984 242.102 124.287 246.927C123.557 249.165 122.221 251.157 120.427 252.682C118.175 254.317 115.483 255.238 112.701 255.324C109.576 255.576 106.416 255.454 103.284 255.451L92.5867 255.44L72.0485 255.418L61.3515 255.406C58.2258 255.403 55.0774 255.513 51.9556 255.341C49.5596 255.209 46.886 254.794 45.1207 253.012C43.1432 251.015 42.9597 247.931 42.869 245.282C41.9237 217.702 41.4256 190.099 40.7051 162.513L40.437 152.25C40.394 150.6 37.8265 150.594 37.8698 152.25L37.8698 152.25Z" fill="#3F3D56"/>
<path d="M200.464 152.25L201.609 196.081L202.753 239.912C202.898 245.443 202.117 252.986 207.725 256.226C210.064 257.577 212.862 257.874 215.513 257.947C219.033 258.045 222.564 257.973 226.085 257.976L269.943 258.023C275.705 258.029 282.034 257.861 286.163 253.219C289.609 249.343 290.585 243.971 290.931 238.958C291.387 232.342 291.168 225.644 291.227 219.015L291.424 196.987L291.621 174.959C291.681 168.267 291.997 161.52 291.704 154.833C291.48 149.73 290.618 144.281 287.197 140.271C283.301 135.703 277.141 135.086 271.522 134.906C256.99 134.441 242.456 134.048 227.923 133.619C224.58 133.521 221.226 133.341 217.881 133.386C214.906 133.328 211.943 133.782 209.122 134.728C204.423 136.487 200.753 140.708 200.916 145.944C200.927 147.04 201.169 148.122 201.626 149.119C202.084 150.115 202.746 151.004 203.571 151.726C204.825 152.788 206.65 150.98 205.386 149.911C201.961 147.012 203.62 141.582 206.614 139.01C210.952 135.283 217.752 135.887 223.042 136.043L264.211 137.258C267.404 137.352 270.605 137.384 273.794 137.572C276.641 137.739 279.615 138.109 282.162 139.48C286.568 141.852 288.288 146.717 288.867 151.422C289.595 157.343 289.157 163.452 289.103 169.398L288.916 190.357L288.545 231.847C288.5 236.893 288.578 242.102 286.881 246.927C286.151 249.165 284.815 251.157 283.021 252.682C280.769 254.317 278.077 255.238 275.295 255.324C272.17 255.576 269.01 255.454 265.878 255.451L255.181 255.44L234.642 255.418L223.945 255.406C220.82 255.403 217.671 255.513 214.55 255.341C212.154 255.209 209.48 254.794 207.715 253.012C205.737 251.015 205.554 247.931 205.463 245.282C204.518 217.702 204.02 190.099 203.299 162.513L203.031 152.25C202.988 150.6 200.42 150.594 200.464 152.25L200.464 152.25Z" fill="#3F3D56"/>
<path d="M82.1836 267.512C81.2862 266.648 80.1817 266.03 78.9762 265.716C77.7707 265.402 76.5048 265.404 75.3002 265.721C74.1033 266.05 72.994 266.639 72.0524 267.448C71.1107 268.257 70.36 269.264 69.8544 270.398C67.4289 275.565 69.6019 281.588 72.9533 285.807C76.0675 289.728 81.127 292.312 86.0556 290.253C88.3012 289.291 90.1879 287.647 91.4497 285.555C92.7114 283.462 93.2846 281.026 93.0882 278.59C92.4669 272.853 87.8059 268.206 82.3326 266.805C80.7312 266.395 80.0481 268.871 81.6501 269.281C83.5527 269.742 85.3139 270.661 86.7806 271.958C88.2473 273.255 89.375 274.891 90.0657 276.724C90.6716 278.516 90.6978 280.454 90.1405 282.262C89.5832 284.071 88.4707 285.657 86.9609 286.798C79.3109 292.674 70.5607 281.439 71.4185 274.087C71.51 273.003 71.8498 271.954 72.4114 271.022C72.973 270.089 73.7415 269.299 74.6574 268.711C75.5491 268.186 76.5862 267.963 77.6149 268.074C78.6436 268.185 79.6092 268.625 80.3683 269.328C80.6117 269.556 80.9339 269.68 81.267 269.674C81.6 269.668 81.9179 269.534 82.1534 269.298C82.3889 269.062 82.5237 268.744 82.5294 268.411C82.535 268.078 82.4111 267.756 82.1836 267.512L82.1836 267.512Z" fill="#3F3D56"/>
<path d="M239.024 178.39C236.028 177.359 232.55 176.336 229.45 177.544C226.526 178.684 224.915 181.474 224.598 184.503C224.245 187.881 225.681 191.102 227.203 194.026C229.033 197.544 230.921 201.033 232.781 204.534L239.216 216.647C239.362 216.884 239.581 217.067 239.84 217.169C240.099 217.272 240.384 217.287 240.653 217.215C240.922 217.142 241.16 216.984 241.332 216.765C241.504 216.546 241.601 216.277 241.608 215.999C241.244 211.937 241.888 207.849 243.484 204.097C245.129 200.304 247.818 197.101 249.729 193.454C251.489 190.097 252.662 186.245 251.73 182.461C250.976 179.4 248.751 176.422 245.544 175.71C243.924 175.3 242.21 175.481 240.712 176.222C239.213 176.962 238.028 178.213 237.369 179.749C236.764 181.288 239.245 181.955 239.845 180.432C240.699 178.264 243.688 177.599 245.68 178.429C248.276 179.51 249.507 182.613 249.504 185.251C249.5 188.857 247.653 192.152 245.779 195.114C243.887 198.105 241.897 200.998 240.639 204.332C239.251 208.055 238.705 212.04 239.04 215.999L241.432 215.351C237.254 207.486 232.846 199.7 228.902 191.715C227.385 188.645 226.021 184.503 228.346 181.44C230.73 178.3 235.281 179.813 238.341 180.866C239.907 181.405 240.58 178.925 239.024 178.39L239.024 178.39Z" fill="#3F3D56"/>
<path d="M75.6276 274.686L79.4079 282.021C79.5389 282.234 79.7287 282.404 79.9545 282.512C80.1802 282.62 80.4322 282.66 80.6802 282.627C80.9282 282.595 81.1615 282.491 81.352 282.329C81.5425 282.167 81.6821 281.954 81.754 281.714C82.7388 276.637 85.0982 271.927 88.575 268.1C89.6874 266.881 87.8768 265.06 86.7597 266.284C82.9664 270.424 80.3791 275.524 79.2784 281.031L81.6246 280.725L77.8444 273.39C77.087 271.921 74.871 273.218 75.6276 274.686Z" fill="#3F3D56"/>
<path d="M118.507 240.829L88.6381 267.218C88.4697 267.367 88.2507 267.445 88.0262 267.437C87.8017 267.429 87.5888 267.336 87.4314 267.175C87.274 267.015 87.184 266.8 87.1801 266.576C87.1761 266.351 87.2585 266.133 87.4102 265.968L115.24 235.573L118.507 240.829Z" fill="#3F3D56"/>
<path d="M158.326 561.984H170.066L175.653 516.689H158.326V561.984Z" fill="#FFB6B6"/>
<path d="M152.13 582.33H160.549L162.052 574.379L165.9 582.33H188.23C189.3 582.33 190.342 581.988 191.204 581.353C192.067 580.719 192.703 579.825 193.022 578.803C193.34 577.781 193.324 576.684 192.975 575.672C192.626 574.66 191.963 573.786 191.082 573.177L173.25 560.859V552.821L154.495 553.941L152.13 582.33Z" fill="#2F2E41"/>
<path d="M258.883 561.984H270.622L276.21 516.689H258.883V561.984Z" fill="#FFB6B6"/>
<path d="M252.687 582.33H261.106L262.608 574.379L266.457 582.33H288.786C289.857 582.33 290.899 581.988 291.761 581.353C292.623 580.719 293.26 579.825 293.578 578.803C293.897 577.781 293.881 576.684 293.532 575.672C293.182 574.66 292.519 573.786 291.638 573.177L273.807 560.859V552.821L255.051 553.941L252.687 582.33Z" fill="#2F2E41"/>
<path d="M224.953 321.896L165.413 315.278C165.413 315.278 138.95 349.689 148.874 379.467V412.628L156.151 542.257L174.344 543.249L179.636 484.354L184.598 460.862L188.777 371.36L210.068 397.004L212.052 406.93L218.668 411.562L230.907 428.384L256.046 531.669L278.2 532C278.2 532 266.3 424.797 264.977 424.797C263.654 424.797 230.576 352.667 230.576 352.667V348.85L229.253 341.417C229.253 341.417 232.561 338.77 231.238 337.447C229.914 336.123 228.591 332.153 228.591 332.153L224.953 321.896Z" fill="#2F2E41"/>
<path d="M203.452 229.582L215.36 242.817L231.899 248.773L222.637 303.036L225.709 318.639L230.245 335.792C212.767 345.463 192.006 332.107 172.933 326.175L154.166 334.469L155.159 311.639L155.667 254.117C155.687 251.908 156.16 249.726 157.058 247.707C157.956 245.689 159.258 243.876 160.886 242.382C162.513 240.888 164.43 239.745 166.517 239.023C168.605 238.301 170.818 238.015 173.021 238.185L185.59 228.92L203.452 229.582Z" fill="#FF2564"/>
<path d="M95.4277 253.856C95.5217 254.838 95.8297 255.787 96.3301 256.637C96.8306 257.487 97.5112 258.217 98.3241 258.775C99.137 259.334 100.062 259.707 101.035 259.869C102.008 260.031 103.004 259.977 103.954 259.712L117.606 279.42L122.248 267.858L108.572 250.915C108.021 249.349 106.915 248.039 105.463 247.233C104.011 246.428 102.314 246.183 100.694 246.546C99.0739 246.908 97.6429 247.853 96.6723 249.2C95.7017 250.547 95.2588 252.204 95.4277 253.856Z" fill="#FFB8B8"/>
<path d="M166.91 238.467C166.91 238.467 149.14 237.68 151.13 273.004L143.57 288.521L128.365 274.327L128.297 269.809L115.438 255.433L105.117 266.846L111.987 277.353L113.312 283.221L117.496 285.777L128.413 302.474L133.464 307.446C133.464 307.446 139.87 313.832 147.117 312.87C149.05 312.619 150.932 312.065 152.693 311.229C156.14 309.588 159.546 306.645 162.409 301.663C168.41 291.375 173.79 280.736 178.52 269.804L166.91 238.467Z" fill="#FF2564"/>
<path d="M244.702 198.587C244.43 199.536 244.37 200.532 244.525 201.506C244.681 202.48 245.048 203.408 245.6 204.225C246.153 205.042 246.878 205.728 247.724 206.234C248.57 206.741 249.517 207.055 250.498 207.156L256.005 230.491L264.55 221.426L258.011 200.656C258.071 198.996 257.52 197.372 256.462 196.092C255.405 194.811 253.915 193.963 252.275 193.708C250.634 193.453 248.957 193.809 247.561 194.709C246.166 195.608 245.148 196.988 244.702 198.587V198.587Z" fill="#FFB8B8"/>
<path d="M206.884 245.627C206.884 245.627 216.28 230.52 244.285 252.131L261.355 254.666L258.245 234.096L254.558 231.485L249.972 212.748L265.218 210.684L269.999 222.293L274.089 226.703L273.832 231.6L281.429 250.047L282.674 257.025C282.674 257.025 284.318 265.922 279.429 271.357C278.128 272.81 276.608 274.05 274.923 275.031C271.621 276.947 267.269 278.093 261.542 277.639C249.665 276.774 237.851 275.199 226.162 272.922L206.884 245.627Z" fill="#FF2564"/>
<path d="M205.557 224.065C216.662 217.993 220.744 204.065 214.673 192.957C208.603 181.849 194.679 177.767 183.574 183.839C172.47 189.911 168.388 203.838 174.459 214.946C180.529 226.055 194.453 230.137 205.557 224.065Z" fill="#FFB6B6"/>
<path d="M224.717 196.043C224.648 196.069 224.588 196.094 224.52 196.12C224.389 196.177 224.255 196.226 224.117 196.265C223.243 196.584 222.331 196.791 221.405 196.882C221.01 196.924 220.613 196.944 220.215 196.942C219.706 196.942 219.197 196.908 218.692 196.839C218.13 196.769 217.575 196.654 217.032 196.497C216.774 196.427 216.52 196.344 216.27 196.248C214.571 195.64 213.035 194.645 211.785 193.342C210.535 192.04 209.604 190.465 209.065 188.741V188.733C209.007 188.564 208.959 188.393 208.919 188.219C208.667 187.255 208.541 186.262 208.543 185.266V185.249C208.542 182.819 209.306 180.45 210.725 178.478C211.581 177.271 212.566 177.071 212.017 175.687C210.266 171.272 217.486 167.685 221.738 169.635C221.892 169.621 222.046 169.615 222.201 169.618C225.067 169.618 226.12 173.855 227.823 176.244L227.773 176.26C227.34 176.41 226.965 176.692 226.7 177.066C226.435 177.441 226.293 177.889 226.295 178.347C226.297 178.806 226.442 179.253 226.711 179.625C226.979 179.997 227.356 180.276 227.791 180.422C228.928 180.796 230.077 181.127 231.237 181.414C235.057 185.949 230.632 199.178 224.717 196.043Z" fill="#2F2E41"/>
<path d="M222.577 208.172C221.302 212.992 218.957 217.691 215.081 220.816C211.196 223.94 192.942 231.319 191.419 224.959C192.437 229.401 191.813 231.096 190.152 232.68C189.87 232.295 189.571 231.927 189.262 231.567C188.128 230.252 186.765 229.153 185.24 228.323C185.194 231.005 185.38 233.685 185.797 236.335C185.113 236.963 184.461 237.626 183.845 238.321C180.919 229.521 174.481 218.974 179.182 210.98C181.047 207.808 179.499 207.369 177.855 207C174.985 206.356 173.431 194.562 172.755 191.694C171.916 188.099 171.591 183.965 173.825 181.02C176.058 178.075 181.689 177.964 182.819 181.482L185.198 178.264C188.278 171.527 196.408 172.897 203.759 173.787C211.11 174.669 217.588 179.856 220.883 186.49C224.169 193.124 224.468 201.008 222.577 208.172Z" fill="#2F2E41"/>
<path d="M211.063 177.335C210.897 181.401 211.929 185.427 214.031 188.912C216.133 192.397 219.213 195.187 222.887 196.935C224.38 197.616 225.686 195.403 224.183 194.717C220.9 193.192 218.144 190.726 216.265 187.631C214.386 184.536 213.469 180.952 213.63 177.335C213.72 175.683 211.152 175.688 211.063 177.335Z" fill="#FF6584"/>
<path d="M110.305 566.901C109.848 566.922 109.396 566.802 109.01 566.557C108.623 566.312 108.322 565.955 108.145 565.533C107.969 565.111 107.926 564.645 108.024 564.198C108.121 563.751 108.353 563.345 108.689 563.035L108.842 562.427C108.821 562.379 108.801 562.33 108.781 562.281C106.728 557.385 93.6288 571.034 93.0625 575.636C92.8131 577.67 92.9183 579.732 93.3735 581.73C89.1305 572.472 86.9272 562.409 86.913 552.224C86.9121 549.669 87.054 547.115 87.3382 544.575C87.573 542.493 87.8988 540.425 88.3155 538.373C90.5897 527.236 95.4725 516.798 102.563 507.915C106.618 508.141 110.172 507.523 110.515 499.662C110.576 498.264 111.613 497.053 111.841 495.676C111.454 495.727 111.061 495.758 110.673 495.784C110.553 495.79 110.426 495.796 110.305 495.803L110.26 495.805C109.834 495.824 109.412 495.719 109.045 495.504C108.677 495.289 108.38 494.972 108.188 494.592C107.996 494.211 107.919 493.784 107.964 493.36C108.01 492.937 108.177 492.535 108.445 492.204C108.613 491.999 108.78 491.793 108.947 491.588C109.201 491.27 109.461 490.959 109.715 490.642C109.744 490.611 109.772 490.58 109.798 490.546C110.09 490.184 110.381 489.829 110.673 489.467C110.141 488.64 109.424 487.947 108.579 487.442C105.653 485.728 101.617 486.915 99.5039 489.562C97.3843 492.21 96.9845 495.923 97.7206 499.231C98.4446 502.045 99.6421 504.715 101.262 507.128C101.103 507.331 100.938 507.527 100.78 507.731C97.8793 511.461 95.3515 515.467 93.2324 519.69C93.832 515.006 86.5006 498.089 83.6653 494.505C80.2597 490.201 73.2763 492.08 72.6763 497.536C72.6705 497.589 72.6648 497.642 72.6593 497.694C73.0804 497.932 73.4926 498.184 73.896 498.451C74.4027 498.79 74.7953 499.274 75.0224 499.839C75.2495 500.405 75.3005 501.026 75.1686 501.621C75.0368 502.216 74.7284 502.758 74.2837 503.174C73.839 503.591 73.2788 503.864 72.6765 503.957L72.6149 503.966C66.9778 512.017 85.0488 532.972 89.5721 528.267C87.443 534.302 86.1076 540.588 85.5993 546.968C85.3115 550.732 85.3285 554.513 85.6501 558.274L85.631 558.141C84.626 549.949 67.3842 537.769 62.3493 538.784C59.4488 539.368 56.592 539.236 57.0324 542.162C57.0394 542.209 57.0466 542.256 57.0538 542.302C57.8353 542.621 58.5962 542.987 59.3321 543.4C59.7533 543.638 60.1655 543.89 60.5688 544.157C61.0755 544.496 61.4681 544.98 61.6952 545.545C61.9223 546.111 61.9733 546.732 61.8415 547.327C61.7097 547.922 61.4012 548.464 60.9565 548.88C60.5118 549.297 59.9516 549.57 59.3494 549.663L59.2876 549.672C59.2432 549.679 59.2051 549.685 59.1608 549.691C56.5948 558.523 75.6237 572.775 87.1922 568.24H87.1986C88.345 573.224 90.0061 578.074 92.155 582.714H109.861C109.925 582.517 109.982 582.314 110.039 582.117C108.4 582.22 106.754 582.122 105.139 581.825C106.453 580.213 107.767 578.588 109.08 576.975C109.11 576.945 109.137 576.913 109.163 576.88C109.829 576.055 110.502 575.236 111.168 574.411L111.169 574.41C111.204 571.88 110.914 569.356 110.305 566.901L110.305 566.901ZM90.029 527.003L90.0383 526.991L90.029 527.016V527.003ZM86.107 562.368L85.9547 562.026C85.9611 561.778 85.9611 561.531 85.9547 561.277C85.9547 561.207 85.942 561.137 85.942 561.067C85.9991 561.505 86.0499 561.943 86.1133 562.381L86.107 562.368Z" fill="#FF2564"/>
<path d="M307.107 582.288H57.1248V584H307.107V582.288Z" fill="#CCCCCC"/>
</svg>
