<svg width="105" height="105" viewBox="0 0 105 105" fill="none" xmlns="http://www.w3.org/2000/svg">
<path d="M52.5 48.121C50.0856 48.121 48.1209 50.0857 48.1209 52.5C48.1209 54.9144 50.0856 56.8791 52.5 56.8791C54.9143 56.8791 56.879 54.9144 56.879 52.5C56.879 50.0857 54.9143 48.121 52.5 48.121Z" fill="white"/>
<path d="M58.7997 45.6342C58.4873 45.6342 58.2331 45.8878 58.2331 46.2003C58.2331 46.5127 58.4873 46.7664 58.7997 46.7664C59.1121 46.7664 59.3663 46.5127 59.3663 46.2003C59.3663 45.8878 59.1121 45.6342 58.7997 45.6342Z" fill="white"/>
<path d="M52.5 31.5C40.9219 31.5 31.5 40.9219 31.5 52.5C31.5 64.078 40.9219 73.5 52.5 73.5C64.078 73.5 73.5 64.078 73.5 52.5C73.5 40.9219 64.078 31.5 52.5 31.5ZM64.4998 56.2795C64.4998 60.812 60.812 64.4998 56.2795 64.4998H48.72C44.188 64.4998 40.5001 60.812 40.5001 56.2795V48.7205C40.5001 44.188 44.188 40.5001 48.72 40.5001H56.2795C60.812 40.5001 64.4998 44.188 64.4998 48.7205V56.2795Z" fill="white"/>
<path d="M56.2795 42.2192H48.72C45.1354 42.2192 42.2188 45.1359 42.2188 48.7205V56.2795C42.2188 59.8641 45.1354 62.7808 48.72 62.7808H56.2795C59.8641 62.7808 62.7808 59.8641 62.7808 56.2795V48.7205C62.7808 45.1359 59.8641 42.2192 56.2795 42.2192ZM52.5 58.5982C49.1377 58.5982 46.4018 55.8623 46.4018 52.5C46.4018 49.1377 49.1377 46.4018 52.5 46.4018C55.8623 46.4018 58.5982 49.1377 58.5982 52.5C58.5982 55.8623 55.8623 58.5982 52.5 58.5982ZM58.7997 48.4855C57.5394 48.4855 56.5145 47.4606 56.5145 46.2003C56.5145 44.9399 57.5394 43.9151 58.7997 43.9151C60.0601 43.9151 61.0849 44.9399 61.0849 46.2003C61.0849 47.4606 60.0601 48.4855 58.7997 48.4855Z" fill="white"/>
</svg>
