<svg width="447" height="526" viewBox="0 0 447 526" fill="none" xmlns="http://www.w3.org/2000/svg">
<g clip-path="url(#clip0_4_298)">
<path d="M440.337 439.97H142.453C140.686 439.968 138.993 439.265 137.743 438.015C136.494 436.765 135.792 435.071 135.79 433.304V6.66621C135.792 4.89883 136.494 3.2044 137.743 1.95467C138.992 0.704937 140.686 0.00197201 142.453 0H440.337C442.103 0.00197408 443.797 0.704937 445.046 1.95467C446.295 3.2044 446.998 4.89883 447 6.66621V433.304C446.998 435.071 446.295 436.765 445.046 438.015C443.797 439.265 442.103 439.968 440.337 439.97V439.97Z" fill="#282837"/>
<path d="M434.066 433.696H148.724C146.957 433.694 145.264 432.991 144.015 431.741C142.765 430.491 142.063 428.797 142.061 427.03V12.9404C142.063 11.173 142.765 9.47857 144.015 8.22884C145.264 6.97911 146.957 6.27614 148.724 6.27417H434.066C435.832 6.27614 437.526 6.97911 438.775 8.22884C440.024 9.47857 440.727 11.173 440.729 12.9404V427.03C440.727 428.797 440.024 430.491 438.775 431.741C437.526 432.991 435.832 433.694 434.066 433.696V433.696Z" fill="white"/>
<path d="M226.775 411.983C201.392 378.46 211.458 340.2 196.587 313.509C139.592 211.21 209.774 220.635 289.121 240.529L289.31 242.736C238.809 250.533 205.596 276.536 198.188 314.077C192.431 343.253 202.996 377.461 227.937 410.401L226.775 411.983Z" fill="#F0F0F0"/>
<path d="M282.533 287.223L282.003 285.12C310.336 272.268 307.901 233.99 333.251 225.249C526.353 158.662 335.74 151.153 292.865 115.932C254.524 84.435 212.739 47.8157 159.635 28.9558L160.058 26.8086C213.394 45.7515 260.94 76.8004 293.934 114.236C327.094 151.86 341.626 191.486 334.851 225.817C329.509 252.889 311.417 274.122 282.533 287.223Z" fill="#F0F0F0"/>
<path d="M205.406 213.447C192.458 212.423 207.736 203.851 208.759 190.897C209.001 187.816 209.847 184.813 211.25 182.059C212.652 179.305 214.583 176.855 216.932 174.848C219.282 172.841 222.003 171.317 224.941 170.362C227.879 169.408 230.977 169.042 234.056 169.285C237.136 169.528 240.137 170.376 242.889 171.781C245.641 173.185 248.09 175.118 250.095 177.469C252.1 179.82 253.622 182.543 254.575 185.483C255.528 188.423 255.892 191.522 255.647 194.603C254.625 207.557 218.354 214.47 205.406 213.447Z" fill="#FF2564"/>
<path d="M329.726 132.801C326.647 132.558 323.647 131.71 320.895 130.307C318.144 128.903 315.696 126.971 313.691 124.621C311.686 122.271 310.163 119.549 309.21 116.61C308.256 113.672 307.891 110.574 308.134 107.494C309.157 94.5399 283.444 85.8747 296.392 86.898C309.34 87.9213 356.045 98.2456 355.022 111.199C354.779 114.279 353.932 117.281 352.529 120.034C351.126 122.787 349.195 125.236 346.846 127.242C344.497 129.248 341.776 130.771 338.839 131.725C335.901 132.679 332.805 133.044 329.726 132.801V132.801Z" fill="#FF2564"/>
<path d="M358.066 103.273C359.772 106.815 358.766 110.906 356.513 113.963C353.949 117.441 349.872 119.156 345.69 119.722C341.201 120.267 336.648 119.892 332.308 118.62C328.122 117.411 323.778 114.82 322.914 110.192C322.339 107.107 323.654 103.815 326.856 102.96C328.141 102.635 329.487 102.647 330.765 102.994C332.044 103.341 333.212 104.011 334.156 104.941C336.814 107.71 336.612 112.153 334.922 115.369C332.935 119.151 328.958 121.238 324.87 121.926C320.009 122.745 315.125 121.601 310.552 119.974C305.582 118.205 300.76 116.003 295.89 113.98C286.394 110.034 276.692 106.328 266.48 104.756C250.879 102.356 232.364 106.094 222.814 119.777C217.658 127.164 216.198 136.428 217.308 145.241C218.478 154.535 222.554 163.075 227.951 170.638C230.809 174.572 233.93 178.308 237.292 181.821C238.387 182.886 239.14 184.252 239.456 185.746C239.773 187.24 239.638 188.794 239.069 190.212C236.111 197.485 224.281 195.167 223.4 187.67C222.999 184.264 224.899 180.755 227.273 178.445C229.966 175.924 233.36 174.279 237.007 173.727C244.683 172.444 252.797 175.292 258.664 180.237C265.293 185.824 269.024 194.315 270.99 202.581C273.228 211.991 273.342 221.67 273.554 231.29C273.772 241.134 274.146 251.094 276.969 260.595C279.264 268.242 282.808 275.457 287.457 281.948C296.741 295.024 309.94 304.81 325.147 309.891C328.825 311.085 332.597 311.969 336.423 312.533C337.92 312.756 338.099 310.409 336.608 310.188C319.931 307.714 304.595 298.681 293.616 285.983C288.114 279.648 283.766 272.397 280.769 264.558C277.189 255.117 276.281 245.089 275.989 235.069C275.69 224.836 275.853 214.51 273.805 204.429C271.994 195.517 268.443 186.493 261.866 179.999C256.068 174.274 247.772 170.732 239.573 171.112C231.944 171.466 223.786 175.669 221.519 183.457C220.456 187.111 221.132 191.033 223.921 193.747C225.51 195.256 227.487 196.294 229.631 196.748C231.774 197.201 234.002 197.051 236.066 196.315C238.308 195.345 240.109 193.574 241.119 191.349C242.129 189.123 242.275 186.601 241.528 184.273C240.901 182.564 239.892 181.021 238.579 179.76C231.697 172.407 225.381 164.178 221.954 154.604C218.758 145.673 218.102 135.4 221.788 126.514C228.768 109.691 249.023 104.636 265.522 106.987C276.319 108.526 286.543 112.616 296.545 116.799C301.653 118.936 306.727 121.31 312.024 122.945C316.767 124.409 321.856 125.144 326.742 123.944C331.007 122.896 334.926 120.415 336.992 116.447C338.868 112.842 339.192 108.268 336.961 104.736C333.734 99.6305 324.825 98.482 321.579 104.217C319.425 108.022 320.483 112.894 323.312 116.05C326.484 119.588 331.234 121.034 335.779 121.763C344.368 123.141 354.945 122.058 359.541 113.57C361.434 110.074 361.945 105.905 360.184 102.249C360.041 101.979 359.8 101.775 359.51 101.679C359.22 101.584 358.905 101.605 358.63 101.738C358.355 101.87 358.143 102.105 358.038 102.391C357.932 102.678 357.942 102.994 358.066 103.273L358.066 103.273Z" fill="#282837"/>
<path d="M330.437 313.012C316.706 311.927 279.994 330.723 270.056 322.637C268.814 321.634 267.613 320.582 266.452 319.481C262.652 315.916 259.296 311.905 256.457 307.535C255.965 306.796 255.497 306.051 255.045 305.3C253.453 302.63 252.051 299.851 250.85 296.983C250.64 296.463 250.43 295.935 250.22 295.407C244.627 280.947 244.344 264.971 249.42 250.322C254.497 235.672 264.604 223.3 277.943 215.406C291.282 207.513 306.987 204.61 322.265 207.214C337.542 209.818 351.401 217.761 361.374 229.628C361.907 230.252 362.423 230.891 362.929 231.545C367.992 238.031 371.782 245.418 374.099 253.314C374.098 253.322 374.106 253.323 374.105 253.331C377.561 265.172 377.617 277.747 374.267 289.618L374.266 289.634C374.19 289.896 374.115 290.157 374.031 290.418C365.455 319.454 361.813 315.492 330.437 313.012Z" fill="#FF2564"/>
<path d="M251.147 297.014C251.047 297.016 250.948 297.005 250.85 296.983C250.64 296.463 250.43 295.935 250.22 295.407C250.309 295.186 250.463 294.997 250.661 294.865C250.86 294.733 251.094 294.665 251.332 294.669C252.52 294.665 253.705 294.529 254.863 294.263C264.919 291.99 270.781 281.691 273.292 272.496C276.374 261.246 276.416 249.158 281.987 238.663C284.151 234.35 287.333 230.63 291.257 227.823C295.565 224.902 300.801 223.677 305.958 224.383C318.09 225.987 326.946 235.333 338.209 239.181C342.849 240.767 347.788 241.157 352.428 239.353C356.371 237.823 359.967 234.803 360.782 230.462C360.808 230.287 360.876 230.12 360.979 229.975C361.082 229.83 361.217 229.711 361.374 229.628C361.907 230.252 362.423 230.891 362.929 231.545C362.748 232.328 362.485 233.091 362.144 233.819C360.165 237.974 356.218 240.659 351.92 242.003C346.946 243.553 341.771 242.963 336.931 241.227C325.644 237.181 316.36 227.18 303.899 226.557C293.098 226.018 285.634 234.9 282.04 244.166C277.596 255.631 278.256 268.483 273.267 279.779C269.341 288.666 261.475 296.973 251.147 297.014Z" fill="#282837"/>
<path d="M256.457 307.535C255.965 306.796 255.497 306.051 255.045 305.3C255.155 305.212 255.282 305.15 255.417 305.116C255.553 305.081 255.694 305.077 255.832 305.102C265.91 306.292 276.062 303.585 284.211 297.535C287.786 294.919 290.895 291.718 293.404 288.066C296.01 284.244 297.584 279.947 299.35 275.704C301.087 271.531 303.126 267.31 306.581 264.287C310.104 261.206 314.649 259.913 319.252 259.773C330.161 259.447 339.673 265.651 350.29 266.931C355.026 267.502 359.727 266.819 363.781 264.174C367.28 261.886 369.828 258.303 369.664 254.002C369.603 252.581 371.672 252.674 371.974 253.925C371.995 254.011 372.007 254.099 372.009 254.188C372.196 259.19 369.121 263.471 365.075 266.117C360.373 269.199 354.879 269.96 349.381 269.18C338.744 267.662 328.912 261.221 317.905 262.192C315.595 262.325 313.339 262.943 311.283 264.004C309.227 265.065 307.417 266.547 305.969 268.353C303.073 272.073 301.542 276.617 299.755 280.929C298.059 285.238 295.688 289.249 292.73 292.811C289.738 296.29 286.208 299.267 282.275 301.63C274.54 306.354 265.476 308.427 256.457 307.535V307.535Z" fill="#282837"/>
<path d="M270.056 322.637C268.814 321.634 267.613 320.582 266.452 319.481C272.441 321.006 278.682 321.266 284.777 320.244C292.445 319.014 299.68 315.868 305.81 311.097C308.863 308.706 311.557 305.888 313.808 302.73C316.373 299.117 318.615 295.125 322.484 292.732C330.883 287.543 340.936 292.286 349.321 294.837C353.698 296.174 358.399 297.081 362.857 295.6C366.313 294.449 369.668 291.898 370.351 288.129C370.617 286.647 372.97 286.825 372.695 288.314C372.642 288.593 372.581 288.871 372.511 289.149C371.433 293.241 368.086 296.194 364.136 297.629C358.98 299.487 353.639 298.616 348.517 297.055C340.094 294.486 329.085 289.202 321.464 296.49C318.249 299.564 316.277 303.727 313.377 307.085C310.791 310.095 307.807 312.739 304.508 314.944C294.376 321.696 282.096 324.438 270.056 322.637Z" fill="#282837"/>
<path d="M434.458 489.77H378.8C377.034 489.768 375.34 489.065 374.091 487.815C372.842 486.566 372.139 484.871 372.137 483.104V463.498C372.139 461.73 372.842 460.036 374.091 458.786C375.34 457.536 377.034 456.833 378.8 456.831H434.458C436.224 456.833 437.918 457.536 439.167 458.786C440.416 460.036 441.119 461.73 441.121 463.498V483.104C441.119 484.871 440.416 486.566 439.167 487.815C437.918 489.065 436.224 489.768 434.458 489.77Z" fill="#E6E6E6"/>
<path d="M111.692 262.228L113.161 275.86L112.297 293.735L151.872 289.031L155.591 262.228L150.853 262.275L111.692 262.228Z" fill="#FFB6B6"/>
<path d="M158.915 219.985L146.679 215.458L141.451 207.861L122.643 205.98L111.041 213.415L101.316 218.37L101.482 244.241L112.664 290.568L152.644 289L157.906 255.964C157.906 255.964 170.131 239.537 156.966 230.129L158.915 219.985Z" fill="#CCCCCC"/>
<path d="M91.1651 509.72H99.8178L103.935 476.331H91.1651V509.72Z" fill="#FFB6B6"/>
<path d="M88.3413 503.791L102.165 502.966V508.891L115.307 517.972C115.956 518.42 116.445 519.065 116.702 519.811C116.959 520.557 116.972 521.365 116.737 522.119C116.502 522.872 116.033 523.531 115.397 523.999C114.762 524.466 113.994 524.719 113.205 524.719H96.7475L93.9109 518.858L92.8033 524.719H86.5983L88.3413 503.791Z" fill="#282837"/>
<path d="M139.767 509.72H148.42L152.537 476.331H139.767V509.72Z" fill="#FFB6B6"/>
<path d="M136.943 503.791L150.767 502.966V508.891L163.909 517.972C164.558 518.42 165.047 519.065 165.304 519.811C165.562 520.557 165.574 521.365 165.339 522.119C165.104 522.872 164.635 523.531 163.999 523.999C163.364 524.466 162.596 524.719 161.807 524.719H145.35L142.513 518.858L141.405 524.719H135.2L136.943 503.791Z" fill="#282837"/>
<path d="M87.4319 480.927H87.526L89.19 426.638C88.1131 424.56 87.5666 422.248 87.5991 419.907C87.6316 417.567 88.2421 415.271 89.3762 413.223L89.6144 412.792L88.9967 409.927C88.2033 406.247 88.5674 402.411 90.039 398.945L91.5914 348.304C86.0453 312.345 112.476 288.893 112.476 288.893H152.07L160.57 318.112C166.19 372.885 165.17 426.259 156.253 477.971L156.496 478.094C157.371 478.396 157.747 479.609 157.335 480.803C156.922 481.998 155.879 482.721 155.004 482.418L134.093 481.691C133.218 481.389 132.843 480.175 133.255 478.981C133.667 477.787 134.71 477.064 135.586 477.366L137.007 478.085L133.975 425.698L134.312 416.13L133.619 405.274L130.414 356.446L118.282 416.491L105.89 481.532C106.231 481.841 106.471 482.247 106.578 482.696C106.684 483.145 106.652 483.616 106.485 484.046C106.319 484.476 106.026 484.845 105.645 485.106C105.264 485.366 104.813 485.504 104.352 485.503H87.4319C86.8254 485.503 86.2438 485.262 85.815 484.833C85.3861 484.404 85.1452 483.822 85.1452 483.215C85.1452 482.608 85.3861 482.026 85.815 481.597C86.2438 481.168 86.8254 480.927 87.4319 480.927V480.927Z" fill="#282837"/>
<path d="M83.3155 327.121C82.56 326.392 81.9734 325.507 81.597 324.527C81.2206 323.547 81.0635 322.496 81.1369 321.449C81.2103 320.401 81.5123 319.383 82.0218 318.465C82.5312 317.547 83.2356 316.752 84.0853 316.136L94.6345 251.355L107.007 255.71L94.4698 318.114C95.4098 319.611 95.7683 321.401 95.4774 323.144C95.1865 324.888 94.2665 326.464 92.8915 327.574C91.5166 328.685 89.7824 329.252 88.0175 329.168C86.2525 329.085 84.5795 328.356 83.3155 327.121H83.3155Z" fill="#FFB6B6"/>
<path d="M102.979 218.312C102.979 218.312 99.4308 216.974 98.1429 224.909C97.1118 231.261 87.0455 269.602 87.9979 278.486C86.8166 278.9 85.8065 279.696 85.1267 280.747C84.447 281.799 84.1363 283.047 84.2436 284.294L102.805 284.389C105.647 281.288 106.016 277.546 104.643 276.627L107.211 265.291L119.305 228.719L105.562 219.234L102.979 218.312Z" fill="#CCCCCC"/>
<path d="M168.771 329.879C169.586 329.218 170.247 328.386 170.706 327.442C171.166 326.498 171.413 325.465 171.429 324.415C171.446 323.365 171.233 322.324 170.805 321.366C170.376 320.408 169.743 319.555 168.949 318.868L165.186 253.708L151.31 256.693L158.433 319.945C157.368 321.355 156.856 323.108 156.996 324.87C157.136 326.632 157.917 328.282 159.192 329.506C160.466 330.731 162.145 331.445 163.91 331.514C165.676 331.582 167.405 331.001 168.771 329.879L168.771 329.879Z" fill="#FFB6B6"/>
<path d="M158.539 219.781C158.539 219.781 162.189 218.753 162.79 226.769C163.271 233.186 170.002 272.252 168.289 281.021C169.431 281.535 170.368 282.415 170.955 283.521C171.542 284.627 171.744 285.897 171.53 287.131L153.029 285.628C150.464 282.293 150.419 278.534 151.865 277.736L150.282 266.221L141.379 228.744L155.887 220.476L158.539 219.781Z" fill="#CCCCCC"/>
<path d="M123.794 204.643C134.131 204.643 142.511 196.26 142.511 185.918C142.511 175.577 134.131 167.193 123.794 167.193C113.458 167.193 105.078 175.577 105.078 185.918C105.078 196.26 113.458 204.643 123.794 204.643Z" fill="#FFB8B8"/>
<path d="M86.5976 225.27C82.6369 223.866 78.6763 222.459 74.7156 221.05C75.3983 219.904 76.2676 218.88 77.2878 218.021C81.0587 214.871 86.2638 214.302 91.0515 213.239C95.8468 212.176 101.052 209.998 102.805 205.413C104.626 200.646 101.985 195.499 100.452 190.641C98.3051 183.862 98.3507 176.294 101.226 169.796C104.102 163.298 109.944 158.03 116.879 156.482C123.814 154.941 131.652 157.453 135.916 163.131C138.664 162.307 141.618 162.517 144.221 163.723C146.823 164.928 148.895 167.045 150.044 169.675C151.038 172.164 151.069 175.163 149.589 177.402C148.109 179.641 144.945 180.788 142.563 179.543L143.944 176.036C139.672 177.486 136.895 185.213 137.472 189.692C138.041 194.163 140.651 198.08 143.299 201.731C145.947 205.382 148.77 209.071 149.908 213.436C151.547 219.714 149.331 226.576 145.234 231.609C141.137 236.642 135.362 240.058 129.384 242.57C124.908 244.453 120.257 245.887 115.498 246.851C116.348 245.197 117.19 243.542 118.04 241.887L107.956 247.99C106.006 248.18 104.041 248.294 102.076 248.332C96.3552 248.43 90.5205 247.831 85.285 245.546C80.0421 243.253 75.4364 239.101 73.5396 233.704C72.9314 231.958 72.6436 230.117 72.6899 228.269C77.3257 227.267 81.9616 226.267 86.5976 225.27Z" fill="#282837"/>
<path d="M67.7222 504.093C67.142 504.12 66.5677 503.968 66.077 503.657C65.5863 503.346 65.203 502.892 64.979 502.356C64.7549 501.82 64.701 501.228 64.8245 500.66C64.948 500.092 65.243 499.576 65.6694 499.182C65.7408 498.898 65.7921 498.694 65.8635 498.41C65.838 498.348 65.8122 498.286 65.7864 498.225C65.2019 496.843 64.2226 495.666 62.9713 494.84C61.7201 494.014 60.2528 493.576 58.7537 493.582C57.2546 493.587 55.7906 494.036 54.5455 494.871C53.3004 495.706 52.3298 496.891 51.7556 498.277C49.4608 503.806 46.5392 509.345 45.8198 515.191C45.503 517.776 45.6366 520.395 46.2148 522.934C40.825 511.171 38.0262 498.387 38.0082 485.447C38.007 482.2 38.1873 478.956 38.5483 475.729C38.8466 473.083 39.2604 470.457 39.7898 467.849C42.6786 453.7 48.8811 440.438 57.8878 429.152C62.2471 426.773 65.7724 423.113 67.9889 418.668C68.7918 417.069 69.3594 415.363 69.6738 413.603C69.182 413.667 68.6822 413.707 68.1905 413.74C68.0373 413.748 67.8761 413.756 67.7229 413.764L67.6651 413.767C67.1247 413.791 66.5887 413.658 66.1218 413.385C65.6549 413.111 65.277 412.709 65.0334 412.226C64.7899 411.742 64.6912 411.199 64.7492 410.661C64.8072 410.123 65.0194 409.613 65.3603 409.193C65.5727 408.931 65.7851 408.67 65.9977 408.409C66.3202 408.005 66.6507 407.61 66.9731 407.207C67.0104 407.169 67.0454 407.128 67.078 407.086C67.4488 406.626 67.8196 406.175 68.1905 405.715C67.5136 404.664 66.6031 403.783 65.5302 403.142C61.8138 400.965 56.6867 402.473 54.0022 405.836C51.3096 409.199 50.8018 413.917 51.7369 418.119C52.6565 421.695 54.1777 425.087 56.2353 428.152C56.0337 428.41 55.8241 428.66 55.6225 428.918C51.9384 433.658 48.7274 438.747 46.0356 444.113C46.6902 438.102 45.9089 432.02 43.756 426.37C41.574 421.104 37.4843 416.669 33.8827 412.116C29.5567 406.648 20.6857 409.034 19.9236 415.966C19.9162 416.033 19.909 416.1 19.902 416.167C20.4369 416.469 20.9606 416.79 21.4729 417.129C22.1166 417.559 22.6153 418.174 22.9038 418.892C23.1922 419.611 23.257 420.4 23.0896 421.156C22.9221 421.912 22.5303 422.6 21.9654 423.13C21.4006 423.659 20.689 424.006 19.9239 424.124L19.8456 424.136C20.0362 426.065 20.373 427.976 20.8532 429.854C22.2448 435.096 24.7038 439.994 28.0762 444.241C31.4485 448.488 35.6614 451.992 40.4508 454.533C40.7652 454.695 41.0716 454.856 41.386 455.009C38.6815 462.677 36.9851 470.664 36.3394 478.769C35.9739 483.551 35.9954 488.355 36.4039 493.133L36.3797 492.964C35.3478 487.65 32.5145 482.856 28.3585 479.39C22.1857 474.317 13.4648 472.449 6.80546 468.371C6.09773 467.917 5.2748 467.674 4.43377 467.672C3.59273 467.67 2.76866 467.909 2.05872 468.36C1.34879 468.811 0.782603 469.456 0.426968 470.218C0.0713331 470.981 -0.0589267 471.829 0.0515458 472.663C0.0604666 472.723 0.0695596 472.782 0.078794 472.841C1.0715 473.246 2.03803 473.712 2.97282 474.236C3.50777 474.538 4.03144 474.859 4.54379 475.198C5.18744 475.628 5.68616 476.243 5.97464 476.961C6.26312 477.68 6.32786 478.469 6.16042 479.225C5.99299 479.981 5.60117 480.669 5.03629 481.199C4.47141 481.728 3.75983 482.075 2.99478 482.193L2.91638 482.205C2.85994 482.213 2.81159 482.221 2.75524 482.229C4.45142 486.281 6.83204 490.01 9.79288 493.254C13.4505 497.181 17.8713 500.318 22.784 502.475C27.6968 504.632 32.9981 505.761 38.3629 505.795H38.371C39.8273 512.127 41.9373 518.289 44.6671 524.184H67.1586C67.2393 523.934 67.3118 523.676 67.3844 523.426C65.3025 523.557 63.2124 523.432 61.1608 523.055C62.8296 521.006 64.4983 518.942 66.167 516.893C66.2043 516.855 66.2392 516.814 66.2718 516.772C67.1183 515.724 67.9728 514.683 68.8193 513.635L68.8197 513.634C68.8648 510.42 68.4962 507.213 67.7229 504.094L67.7222 504.093Z" fill="#F2F2F2"/>
<path d="M218.791 525.759L2.62955 526C2.382 526 2.14459 525.902 1.96954 525.726C1.7945 525.551 1.69615 525.314 1.69615 525.066C1.69615 524.818 1.7945 524.581 1.96954 524.406C2.14459 524.231 2.382 524.132 2.62955 524.132L218.791 523.891C219.039 523.891 219.276 523.99 219.452 524.165C219.627 524.34 219.725 524.577 219.725 524.825C219.725 525.073 219.627 525.31 219.452 525.485C219.276 525.661 219.039 525.759 218.791 525.759V525.759Z" fill="#CACACA"/>
</g>
<defs>
<clipPath id="clip0_4_298">
<rect width="447" height="526" fill="white"/>
</clipPath>
</defs>
</svg>
