<svg width="16" height="18" viewBox="0 0 16 18" fill="none" xmlns="http://www.w3.org/2000/svg">
<path d="M0.429804 16.3028C0.409434 16.3229 0.390124 16.3442 0.371663 16.3664C0.353415 16.3887 0.336015 16.4118 0.320101 16.4356C0.303974 16.4596 0.289121 16.4842 0.275541 16.5097C0.261748 16.5351 0.249441 16.561 0.238407 16.5875C0.227373 16.6143 0.217612 16.6414 0.209125 16.6688C0.200849 16.6964 0.193635 16.7244 0.188118 16.7526C0.182389 16.7808 0.178145 16.8095 0.175386 16.8381C0.172416 16.8668 0.171143 16.8956 0.171143 16.9243C0.171143 16.9531 0.172416 16.982 0.175386 17.0107C0.178145 17.0393 0.182389 17.0677 0.188118 17.0962C0.193635 17.1244 0.200849 17.1522 0.209125 17.1798C0.217612 17.2074 0.227373 17.2345 0.238407 17.261C0.249441 17.2878 0.261748 17.3137 0.275541 17.3391C0.289121 17.3646 0.303974 17.3892 0.320101 17.4132C0.336015 17.4369 0.353415 17.4601 0.371663 17.4824C0.390124 17.5044 0.409434 17.5259 0.429804 17.546C0.450174 17.5666 0.471393 17.5859 0.493674 17.6044C0.515741 17.6226 0.53887 17.64 0.562848 17.6559C0.586613 17.6721 0.611228 17.6869 0.636691 17.7007C0.661941 17.7143 0.688041 17.7266 0.714565 17.7378C0.741089 17.7489 0.768249 17.7586 0.795834 17.7669C0.823419 17.7754 0.851216 17.7824 0.879438 17.7881C0.907659 17.7936 0.936093 17.7979 0.964951 17.8009C0.993596 17.8036 1.02224 17.8051 1.0511 17.8051C1.07996 17.8051 1.1086 17.8036 1.13725 17.8009C1.1659 17.7979 1.19433 17.7936 1.22255 17.7881C1.25077 17.7824 1.27878 17.7754 1.30637 17.7669C1.33395 17.7586 1.3609 17.7489 1.38742 17.7378C1.41416 17.7266 1.44005 17.7143 1.46551 17.7007C1.49076 17.6869 1.51538 17.6721 1.53935 17.6559C1.56333 17.64 1.58625 17.6226 1.60853 17.6044C1.6306 17.5859 1.65203 17.5666 1.67218 17.546L9.54618 9.66543C9.56655 9.64528 9.58608 9.62385 9.60432 9.60178C9.62278 9.5795 9.63997 9.55637 9.6561 9.53239C9.67201 9.50863 9.68687 9.48401 9.70066 9.45855C9.71424 9.43308 9.72655 9.4072 9.73779 9.38046C9.74883 9.35394 9.75859 9.32678 9.76686 9.29919C9.77535 9.27161 9.78235 9.24381 9.78808 9.21559C9.7936 9.18715 9.79784 9.15872 9.80081 9.13008C9.80357 9.10143 9.80506 9.07257 9.80506 9.04371C9.80506 9.01486 9.80357 8.98621 9.80081 8.95756C9.79784 8.92892 9.7936 8.90027 9.78808 8.87205C9.78235 8.84383 9.77535 8.81582 9.76686 8.78824C9.75859 8.76065 9.74883 8.7337 9.73779 8.70697C9.72655 8.68044 9.71424 8.65434 9.70066 8.62909C9.68687 8.60363 9.67201 8.57901 9.6561 8.55504C9.63997 8.53106 9.62278 8.50814 9.60432 8.48586C9.58608 8.46358 9.56655 8.44236 9.54618 8.42199L1.67218 0.541415C1.65181 0.521045 1.6306 0.501736 1.60831 0.483487C1.58603 0.465239 1.56312 0.448051 1.53914 0.432137C1.51516 0.416222 1.49055 0.401369 1.46509 0.387789C1.43984 0.374208 1.41374 0.361901 1.38721 0.350867C1.36069 0.339833 1.33353 0.330285 1.30615 0.321797C1.27857 0.313522 1.25056 0.306519 1.22234 0.30079C1.19412 0.295273 1.1659 0.291029 1.13725 0.288271C1.1086 0.2853 1.07975 0.284027 1.0511 0.284027C1.02224 0.284027 0.993596 0.2853 0.964951 0.288271C0.936305 0.291029 0.907871 0.295273 0.87965 0.30079C0.851428 0.306519 0.823631 0.313522 0.796046 0.321797C0.768461 0.330285 0.741513 0.339833 0.714989 0.350867C0.688253 0.361901 0.662366 0.374208 0.636903 0.387789C0.611652 0.401369 0.587038 0.416222 0.56306 0.432137C0.539082 0.448051 0.515954 0.465239 0.493674 0.483487C0.471606 0.501736 0.450174 0.521045 0.429804 0.541415C0.409646 0.561786 0.390336 0.583217 0.372088 0.605497C0.353839 0.627777 0.336652 0.650694 0.320738 0.674672C0.304611 0.698649 0.28997 0.723263 0.27639 0.748726C0.262809 0.774189 0.250502 0.800077 0.239468 0.826813C0.228434 0.853337 0.218673 0.880497 0.210398 0.90787C0.202123 0.935455 0.19512 0.963464 0.189391 0.991686C0.183874 1.01991 0.17963 1.04834 0.176872 1.07699C0.173901 1.10563 0.172628 1.13449 0.172628 1.16314C0.172628 1.19199 0.173901 1.22064 0.176872 1.24929C0.17963 1.27793 0.183874 1.30637 0.189391 1.3348C0.19512 1.36302 0.202123 1.39082 0.210398 1.4184C0.218673 1.44599 0.228434 1.47294 0.239468 1.49967C0.250502 1.5262 0.262809 1.5523 0.27639 1.57755C0.28997 1.60301 0.304611 1.62762 0.320738 1.6516C0.336652 1.67558 0.353839 1.69871 0.372088 1.72099C0.390336 1.74327 0.409646 1.76449 0.429804 1.78486L7.69142 9.04371L0.429804 16.3028ZM13.8157 9.04371L6.55407 1.78486C6.5337 1.76449 6.51439 1.74327 6.49614 1.72099C6.4779 1.69871 6.46071 1.67558 6.44479 1.6516C6.42888 1.62762 6.41403 1.60301 6.40045 1.57755C6.38687 1.5523 6.37456 1.5262 6.36374 1.49967C6.3527 1.47294 6.34294 1.44599 6.33467 1.4184C6.32618 1.39082 6.31918 1.36302 6.31366 1.3348C6.30814 1.30637 6.3039 1.27793 6.30093 1.24929C6.29817 1.22064 6.29668 1.19199 6.29668 1.16314C6.29668 1.13449 6.29817 1.10563 6.30093 1.07699C6.3039 1.04834 6.30814 1.01991 6.31366 0.991686C6.31918 0.963464 6.32618 0.935455 6.33467 0.90787C6.34294 0.880497 6.3527 0.853337 6.36374 0.826813C6.37456 0.800077 6.38687 0.774189 6.40045 0.748726C6.41403 0.723263 6.42888 0.698649 6.44479 0.674672C6.46071 0.650694 6.4779 0.627777 6.49614 0.605497C6.51439 0.583217 6.5337 0.561786 6.55407 0.541415C6.57444 0.521045 6.59566 0.501736 6.61794 0.483487C6.64022 0.465239 6.66335 0.448051 6.68712 0.432137C6.71109 0.416222 6.73571 0.401369 6.76117 0.387789C6.78642 0.374208 6.81252 0.361901 6.83905 0.350867C6.86557 0.339833 6.89273 0.330285 6.92031 0.321797C6.94769 0.313522 6.9757 0.306519 7.00392 0.30079C7.03214 0.295273 7.06057 0.291029 7.08922 0.288271C7.11787 0.2853 7.14651 0.284027 7.17516 0.284027C7.20401 0.284027 7.23266 0.2853 7.26131 0.288271C7.28995 0.291029 7.31839 0.295273 7.34661 0.30079C7.37483 0.306519 7.40263 0.313522 7.43021 0.321797C7.4578 0.330285 7.48474 0.339833 7.51148 0.350867C7.538 0.361901 7.56389 0.374208 7.58935 0.387789C7.61482 0.401369 7.63943 0.416222 7.6632 0.432137C7.68717 0.448051 7.7103 0.465239 7.73258 0.483487C7.75486 0.501736 7.77608 0.521045 7.79645 0.541415L15.6705 8.42199C15.6908 8.44236 15.7101 8.46358 15.7286 8.48586C15.7468 8.50814 15.7642 8.53106 15.7802 8.55504C15.7963 8.57901 15.8111 8.60363 15.8247 8.62909C15.8385 8.65434 15.8508 8.68044 15.8618 8.70697C15.8729 8.7337 15.8826 8.76065 15.8911 8.78824C15.8994 8.81582 15.9066 8.84383 15.9121 8.87205C15.9179 8.90027 15.9221 8.92892 15.9249 8.95756C15.9278 8.98621 15.9291 9.01486 15.9291 9.04371C15.9291 9.07257 15.9278 9.10143 15.9249 9.13008C15.9221 9.15872 15.9179 9.18715 15.9121 9.21559C15.9066 9.24381 15.8994 9.27161 15.8911 9.29919C15.8826 9.32678 15.8729 9.35394 15.8618 9.38046C15.8508 9.4072 15.8385 9.43308 15.8247 9.45855C15.8111 9.48401 15.7963 9.50863 15.7802 9.53239C15.7642 9.55637 15.7468 9.5795 15.7286 9.60178C15.7101 9.62385 15.6908 9.64528 15.6705 9.66543L7.79645 17.546C7.77608 17.5666 7.75486 17.5859 7.73258 17.6044C7.71052 17.6226 7.68739 17.64 7.66362 17.6559C7.63964 17.6721 7.61503 17.6869 7.58957 17.7007C7.56432 17.7143 7.53822 17.7266 7.51169 17.7378C7.48517 17.7489 7.45801 17.7586 7.43042 17.7669C7.40305 17.7754 7.37504 17.7824 7.34682 17.7881C7.3186 17.7936 7.29016 17.7979 7.26152 17.8009C7.23287 17.8036 7.20401 17.8051 7.17516 17.8051C7.14651 17.8051 7.11765 17.8036 7.08901 17.8009C7.06036 17.7979 7.03193 17.7936 7.00371 17.7881C6.97548 17.7824 6.94748 17.7754 6.91989 17.7669C6.89252 17.7586 6.86536 17.7489 6.83883 17.7378C6.8121 17.7266 6.78621 17.7143 6.76075 17.7007C6.7355 17.6869 6.71088 17.6721 6.6869 17.6559C6.66314 17.64 6.64001 17.6226 6.61773 17.6044C6.59566 17.5859 6.57444 17.5666 6.55407 17.546C6.5337 17.5259 6.51418 17.5044 6.49593 17.4824C6.47747 17.4601 6.46028 17.4369 6.44416 17.4132C6.42824 17.3892 6.41339 17.3646 6.3996 17.3391C6.38602 17.3137 6.37371 17.2878 6.36268 17.261C6.35143 17.2345 6.34167 17.2074 6.33339 17.1798C6.32491 17.1522 6.3179 17.1244 6.31217 17.0962C6.30666 17.0677 6.30241 17.0393 6.29944 17.0107C6.29668 16.982 6.2952 16.9531 6.2952 16.9243C6.2952 16.8956 6.29668 16.8668 6.29944 16.8381C6.30241 16.8095 6.30666 16.7808 6.31217 16.7526C6.3179 16.7244 6.32491 16.6964 6.33339 16.6688C6.34167 16.6414 6.35143 16.6143 6.36268 16.5875C6.37371 16.561 6.38602 16.5351 6.3996 16.5097C6.41339 16.4842 6.42824 16.4596 6.44416 16.4356C6.46028 16.4118 6.47747 16.3887 6.49593 16.3664C6.51418 16.3442 6.5337 16.3229 6.55407 16.3028L13.8157 9.04371Z" fill="#FF2564"/>
</svg>
