<svg width="16" height="18" viewBox="0 0 16 18" fill="none" xmlns="http://www.w3.org/2000/svg">
<path d="M15.6416 1.76948C15.662 1.74937 15.6814 1.7282 15.6999 1.70596C15.7182 1.68373 15.7357 1.66064 15.7516 1.63692C15.7678 1.61298 15.7827 1.5884 15.7964 1.56297C15.8102 1.53754 15.8226 1.51168 15.8337 1.48519C15.8448 1.45848 15.8546 1.43134 15.8632 1.40399C15.8715 1.37642 15.8788 1.34843 15.8844 1.32022C15.8902 1.29202 15.8945 1.26338 15.8973 1.23474C15.9004 1.2061 15.9017 1.17725 15.9018 1.1486C15.9019 1.11975 15.9007 1.09088 15.8978 1.06223C15.8951 1.03358 15.8909 1.00514 15.8852 0.976687C15.8798 0.948453 15.8726 0.920638 15.8644 0.893034C15.856 0.865427 15.8463 0.838244 15.8353 0.811692C15.8244 0.78493 15.8121 0.759013 15.7984 0.733517C15.7849 0.70802 15.7701 0.68337 15.754 0.659353C15.7382 0.635549 15.7208 0.612376 15.7026 0.590052C15.6842 0.567939 15.665 0.546461 15.6446 0.526252C15.6243 0.50562 15.6032 0.486261 15.5809 0.467745C15.5589 0.449442 15.5358 0.431986 15.5119 0.416013C15.4881 0.399828 15.4636 0.384916 15.4381 0.371061C15.4129 0.357419 15.3869 0.345048 15.3604 0.333737C15.3339 0.322638 15.3067 0.312812 15.2792 0.304469C15.2516 0.295914 15.2238 0.288844 15.1956 0.283045C15.1674 0.277459 15.139 0.273145 15.1101 0.270105C15.0815 0.267277 15.0528 0.265721 15.024 0.265651C14.9951 0.26558 14.9665 0.266996 14.9378 0.269684C14.9092 0.272584 14.8807 0.276758 14.8525 0.282207C14.8243 0.287868 14.7962 0.294802 14.7686 0.303222C14.741 0.311431 14.714 0.321125 14.6875 0.332094C14.6607 0.343274 14.6348 0.355519 14.6093 0.369037C14.584 0.382767 14.5594 0.39756 14.5354 0.413628C14.5114 0.429484 14.4884 0.446827 14.4661 0.465022C14.444 0.483429 14.4225 0.502685 14.4023 0.523218L6.50905 8.38454C6.48863 8.40465 6.46905 8.42603 6.45075 8.44806C6.43223 8.47029 6.41499 8.49338 6.39881 8.51732C6.38283 8.54104 6.36792 8.56562 6.35407 8.59105C6.34042 8.61648 6.32805 8.64234 6.31674 8.66905C6.30564 8.69554 6.29582 8.72268 6.28747 8.75024C6.27892 8.77781 6.27185 8.80559 6.26605 8.83379C6.26046 8.86222 6.25615 8.89064 6.25311 8.91928C6.25028 8.94792 6.24872 8.97677 6.24865 9.00563C6.24858 9.03449 6.25 9.06313 6.25269 9.09179C6.25559 9.12044 6.25976 9.1491 6.26521 9.17733C6.27087 9.20557 6.2778 9.23359 6.28622 9.2612C6.29443 9.2888 6.30413 9.31578 6.3151 9.34254C6.32628 9.36909 6.33852 9.39522 6.35204 9.4205C6.36577 9.446 6.38056 9.47065 6.39642 9.49467C6.41249 9.51868 6.42962 9.54164 6.44802 9.56397C6.46622 9.58629 6.48569 9.60756 6.50601 9.62798L14.3607 17.5278C14.3811 17.5482 14.4022 17.5675 14.4245 17.5858C14.4467 17.6042 14.4696 17.6214 14.4935 17.6374C14.5175 17.6533 14.542 17.6683 14.5675 17.6819C14.5927 17.6955 14.6187 17.7079 14.6452 17.719C14.6717 17.7301 14.6989 17.7397 14.7262 17.7483C14.7538 17.7566 14.7818 17.7637 14.81 17.7695C14.8382 17.7751 14.8664 17.7794 14.8951 17.7822C14.9237 17.7853 14.9525 17.7866 14.9812 17.7867C15.01 17.7867 15.0387 17.7855 15.0673 17.7826C15.096 17.7799 15.1244 17.7758 15.1527 17.7703C15.1809 17.7647 15.2087 17.7577 15.2363 17.7495C15.2639 17.7411 15.2909 17.7316 15.3175 17.7206C15.3442 17.7097 15.3701 17.6974 15.3956 17.6839C15.4209 17.6704 15.4456 17.6556 15.4696 17.6398C15.4936 17.6239 15.5168 17.6068 15.5391 17.5886C15.5612 17.5704 15.5827 17.5511 15.6031 17.5308C15.6233 17.5105 15.6427 17.4891 15.661 17.4669C15.6793 17.4446 15.6965 17.4217 15.7125 17.3978C15.7287 17.3739 15.7434 17.3493 15.757 17.3239C15.7707 17.2984 15.783 17.2726 15.7941 17.2459C15.8052 17.2194 15.8151 17.1922 15.8234 17.1649C15.8318 17.1373 15.8388 17.1093 15.8446 17.0811C15.8502 17.0529 15.8545 17.0245 15.8574 16.9958C15.8604 16.9672 15.8617 16.9384 15.8618 16.9097C15.8619 16.8809 15.8607 16.8522 15.8578 16.8235C15.8551 16.7949 15.8509 16.7665 15.8455 16.738C15.8398 16.7098 15.8329 16.682 15.8247 16.6544C15.8165 16.6267 15.8068 16.5998 15.7958 16.573C15.7848 16.5465 15.7726 16.5203 15.7591 16.495C15.7455 16.4696 15.731 16.4449 15.7149 16.4209C15.699 16.3969 15.6819 16.3737 15.6637 16.3514C15.6455 16.329 15.6263 16.3078 15.6062 16.2874L8.36229 9.01079L15.6416 1.76948ZM2.23804 8.99583L9.4819 16.2724C9.50222 16.2928 9.52148 16.3141 9.53967 16.3364C9.55787 16.3587 9.575 16.3819 9.59085 16.4059C9.60671 16.4299 9.6215 16.4546 9.63502 16.4801C9.64854 16.5054 9.66078 16.5315 9.67154 16.5581C9.68251 16.5848 9.6922 16.6118 9.70041 16.6394C9.70883 16.667 9.71576 16.6948 9.72121 16.723C9.72666 16.7515 9.73083 16.7799 9.73374 16.8086C9.73642 16.8372 9.73784 16.8659 9.73777 16.8948C9.7377 16.9234 9.73614 16.9523 9.73331 16.9809C9.73027 17.0095 9.72596 17.038 9.72037 17.0662C9.71479 17.0944 9.70772 17.1224 9.69916 17.1499C9.69082 17.1773 9.68099 17.2044 9.6699 17.2309C9.65901 17.2576 9.64664 17.2835 9.633 17.3089C9.61935 17.3343 9.60444 17.3589 9.58847 17.3829C9.57249 17.4068 9.55525 17.4297 9.53695 17.4519C9.51864 17.4741 9.49928 17.4955 9.47886 17.5158C9.45844 17.5362 9.43718 17.5554 9.41485 17.5736C9.39253 17.5918 9.36936 17.6089 9.34555 17.6248C9.32154 17.6407 9.29689 17.6554 9.27139 17.669C9.24611 17.6825 9.21998 17.6947 9.19343 17.7057C9.16687 17.7167 9.13969 17.7261 9.11209 17.7346C9.08469 17.7428 9.05667 17.7497 9.02843 17.7554C9.0002 17.7608 8.97175 17.765 8.9431 17.7677C8.91445 17.7706 8.8858 17.7718 8.85715 17.7717C8.82829 17.7716 8.79965 17.7703 8.77101 17.7673C8.74237 17.7644 8.71395 17.7601 8.68574 17.7545C8.65754 17.7487 8.62976 17.7417 8.60219 17.7333C8.57463 17.7248 8.5477 17.7151 8.52099 17.7041C8.4945 17.693 8.46864 17.6806 8.44321 17.6669C8.41778 17.6533 8.3932 17.6384 8.36947 17.6224C8.34554 17.6064 8.32245 17.5892 8.30021 17.5709C8.27798 17.5526 8.25681 17.5332 8.23649 17.5128L0.381758 9.61302C0.361437 9.5926 0.34218 9.57133 0.323773 9.54901C0.305579 9.52668 0.288236 9.50373 0.27238 9.47971C0.256312 9.45569 0.241519 9.43104 0.228001 9.40555C0.214271 9.38026 0.202027 9.35413 0.191058 9.32758C0.180089 9.30082 0.170394 9.27385 0.161974 9.24624C0.153766 9.21864 0.14662 9.19061 0.141172 9.16237C0.135511 9.13414 0.131338 9.10548 0.12865 9.07683C0.125749 9.04818 0.124546 9.01953 0.124616 8.99067C0.124687 8.96181 0.12603 8.93296 0.129071 8.90432C0.131899 8.87568 0.136212 8.84726 0.142011 8.81884C0.147597 8.79063 0.15488 8.76285 0.163222 8.73528C0.171777 8.70772 0.181604 8.68058 0.192703 8.65409C0.203802 8.62738 0.216173 8.60152 0.230027 8.57609C0.243669 8.55066 0.258583 8.52608 0.274767 8.50236C0.29074 8.47842 0.308196 8.45533 0.326499 8.4331C0.345014 8.41108 0.364375 8.38969 0.384795 8.36958L8.27802 0.50826C8.29844 0.487727 8.31971 0.468471 8.34203 0.450064C8.36414 0.431869 8.38731 0.414527 8.41112 0.39867C8.43514 0.382602 8.45979 0.367809 8.48528 0.35408C8.51057 0.340561 8.5367 0.328317 8.56325 0.317136C8.5898 0.306166 8.61698 0.296473 8.64459 0.288264C8.67198 0.279844 8.70001 0.27291 8.72824 0.267249C8.75648 0.2618 8.78492 0.257626 8.81357 0.254726C8.84223 0.252038 8.87109 0.250623 8.89995 0.250693C8.92859 0.250763 8.95745 0.25232 8.98608 0.255148C9.01472 0.258187 9.04315 0.262501 9.07135 0.268087C9.09956 0.273886 9.12755 0.280956 9.15512 0.289511C9.18247 0.297854 9.20961 0.30768 9.2361 0.318779C9.26281 0.33009 9.28867 0.342461 9.3141 0.356104C9.33932 0.369958 9.36389 0.38487 9.38783 0.401055C9.41156 0.417028 9.43465 0.434483 9.45688 0.452787C9.4789 0.471302 9.50008 0.490662 9.5204 0.511294C9.54072 0.531503 9.56019 0.552981 9.57838 0.575094C9.59679 0.597419 9.61392 0.620591 9.62999 0.644396C9.64584 0.668412 9.66063 0.693062 9.67436 0.718559C9.68788 0.744055 9.70013 0.769972 9.7111 0.796734C9.72228 0.823287 9.73197 0.850469 9.74018 0.878075C9.7486 0.90568 9.75553 0.933495 9.76119 0.96173C9.76664 0.990178 9.77082 1.01862 9.77372 1.04727C9.77641 1.07593 9.77782 1.10479 9.77775 1.13365C9.77768 1.16229 9.77612 1.19115 9.7733 1.21978C9.77025 1.24842 9.76594 1.27706 9.76035 1.30527C9.75456 1.33347 9.74749 1.36147 9.73893 1.38903C9.73059 1.41638 9.72076 1.44352 9.70945 1.47023C9.69835 1.49672 9.68598 1.52258 9.67234 1.54801C9.65848 1.57344 9.64357 1.59802 9.6276 1.62196C9.61141 1.64568 9.59417 1.66877 9.57565 1.69101C9.55735 1.71324 9.53778 1.73441 9.51736 1.75452L2.23804 8.99583Z" fill="#FF2564"/>
</svg>
