<svg width="42" height="42" viewBox="0 0 42 42" fill="none" xmlns="http://www.w3.org/2000/svg">
<path fill-rule="evenodd" clip-rule="evenodd" d="M21 42C32.5978 42 42 32.5978 42 21C42 9.4022 32.5978 0 21 0C9.4022 0 0 9.4022 0 21C0 32.5978 9.4022 42 21 42ZM32.173 12.7726L28.3489 29.709C28.3281 29.8011 28.2952 29.8892 28.2527 29.9713C28.2263 30.0224 28.196 30.071 28.1625 30.1166C28.0329 30.2923 27.8516 30.4285 27.6385 30.5014C27.2805 30.625 26.884 30.5541 26.5908 30.3141L21.593 26.2252L19.4966 29.9991C19.2819 30.3855 18.8555 30.6042 18.4165 30.5541C17.9775 30.5035 17.6119 30.1936 17.4909 29.7687L15.4887 22.7606L10.6782 21.7985C10.2053 21.7038 9.84983 21.3099 9.80476 20.8294C9.80223 20.7995 9.8002 20.7696 9.8002 20.7397C9.7997 20.7053 9.80071 20.6714 9.80375 20.6374C9.83666 20.2318 10.0949 19.8713 10.4823 19.7143L30.6898 11.5218C30.704 11.5163 30.7187 11.5102 30.7334 11.5051C30.8979 11.4449 31.0691 11.4272 31.2337 11.4464C31.3537 11.4606 31.4732 11.4945 31.5866 11.5497C31.5982 11.5553 31.6094 11.5613 31.6205 11.5674C31.7704 11.6469 31.9031 11.7619 32.0038 11.9072C32.056 11.9826 32.0985 12.0637 32.1309 12.1492C32.1694 12.252 32.1912 12.3573 32.1978 12.4632C32.2044 12.565 32.1963 12.6688 32.173 12.7726ZM26.0166 17.0286L20.4273 23.8594C20.3807 23.9162 20.3407 23.9769 20.3078 24.0392L18.8672 26.6318L17.6317 22.3074L26.0166 17.0286Z" fill="white"/>
</svg>
