<svg width="598" height="478" viewBox="0 0 598 478" fill="none" xmlns="http://www.w3.org/2000/svg">
<path d="M540.185 232.18H39.6941V244.463H540.185V232.18Z" fill="#E6E6E6"/>
<path d="M54.9613 226.626C56.1871 225.38 56.9524 223.68 56.9524 221.793V192.451C56.9524 190.543 56.1757 188.817 54.9331 187.566C54.286 186.919 53.5007 186.401 52.6378 186.047C51.8353 185.728 50.9638 185.547 50.0491 185.547C46.235 185.547 43.1458 188.636 43.1458 192.451V221.793C43.1458 223.521 43.7845 225.097 44.8333 226.308C41.7828 227.887 39.6941 231.066 39.6941 234.738H59.5411C59.5411 231.296 57.7031 228.291 54.9613 226.626Z" fill="#282837"/>
<path d="M535.234 225.538C536.679 224.272 537.596 222.418 537.596 220.345V191.003C537.596 187.189 534.507 184.099 530.693 184.099C529.778 184.099 528.906 184.28 528.104 184.6C527.241 184.953 526.456 185.471 525.809 186.119C524.566 187.37 523.789 189.096 523.789 191.003V220.345C523.789 222.275 524.591 224.005 525.865 225.258C522.605 226.761 520.338 230.049 520.338 233.875H540.185C540.185 230.277 538.183 227.148 535.234 225.538Z" fill="#282837"/>
<path d="M51.9734 243.696H39.6941V252.861H51.9734V243.696Z" fill="#E6E6E6"/>
<path d="M58.8335 252.861H45.8294L45.2599 251.135L43.0508 244.464L42.9904 244.283L44.6645 243.696L54.5794 240.218L56.0032 244.464L58.2467 251.135L58.8335 252.861Z" fill="#E6E6E6"/>
<path d="M536.888 244.283L536.828 244.464L534.619 251.135L534.049 252.861H521.045L521.632 251.135L523.876 244.464L525.299 240.218L535.214 243.696L536.888 244.283Z" fill="#E6E6E6"/>
<path d="M540.185 243.696H527.905V252.861H540.185V243.696Z" fill="#E6E6E6"/>
<path d="M293.391 0H63.8557V88.8897H293.391V0Z" fill="#3F3D56"/>
<path d="M293.391 0H63.8557V88.8897H293.391V0Z" fill="#282837"/>
<path d="M67.3074 0V85.4377H241.093C268.07 85.4377 289.939 63.5661 289.939 36.5861V0H67.3074Z" fill="white"/>
<path d="M578.42 0H19.5795C8.78446 0 0 8.7854 0 19.5816V233.279C0 244.076 8.78446 252.861 19.5795 252.861H578.42C589.216 252.861 598 244.076 598 233.279V19.5816C598 8.7854 589.216 0 578.42 0ZM596.274 233.279C596.274 243.144 588.284 251.135 578.42 251.135H19.5795C9.71643 251.135 1.72583 243.144 1.72583 233.279V19.5816C1.72583 9.71747 9.71643 1.72601 19.5795 1.72601H461.936C536.129 1.72601 596.274 61.8776 596.274 136.079V233.279Z" fill="#282837"/>
<path d="M311.832 180.567H279.791C278.851 180.567 278.092 181.335 278.092 182.284V232.9H313.549V182.284C313.549 181.335 312.781 180.567 311.832 180.567ZM299.708 205.551C299.708 206.405 299.423 207.182 298.94 207.821C298.249 208.735 297.153 209.331 295.919 209.331C294.694 209.331 293.598 208.735 292.908 207.821C292.425 207.182 292.14 206.405 292.14 205.551V199.674C292.157 197.611 293.848 195.928 295.919 195.928C297.99 195.928 299.69 197.611 299.708 199.674V205.551Z" fill="#282837"/>
<path d="M277.979 231.286V236.162C277.979 236.688 278.402 237.12 278.929 237.12H312.703C313.221 237.12 313.652 236.688 313.652 236.162V231.286H277.979Z" fill="#3F3D56"/>
<path d="M364.892 101.576H227.93C225.488 101.576 223.495 103.569 223.495 106.012V198.44C223.495 200.891 225.488 202.884 227.93 202.884H364.892C367.334 202.884 369.328 200.891 369.328 198.44V106.012C369.328 103.569 367.334 101.576 364.892 101.576V101.576Z" fill="#282837"/>
<path d="M363.736 104.778H229.078C227.767 104.778 226.705 105.84 226.705 107.151V170.782C226.705 186.672 239.705 199.674 255.594 199.674H363.744C365.05 199.674 366.118 198.606 366.118 197.301V107.16C366.118 105.85 365.046 104.778 363.736 104.778Z" fill="white"/>
<path d="M338.953 237.042L337.926 232.183L337.71 231.139C337.572 230.457 336.968 229.965 336.269 229.965H258.633C257.943 229.965 257.338 230.457 257.192 231.139L256.976 232.183L255.949 237.042C255.863 237.482 255.966 237.931 256.251 238.276C256.527 238.621 256.95 238.82 257.39 238.82H337.512C337.961 238.82 338.375 238.621 338.66 238.276C338.936 237.931 339.048 237.482 338.953 237.042H338.953Z" fill="#282837"/>
<path d="M261.355 231.03H259.524C259.348 231.03 259.206 231.172 259.206 231.348V232.192C259.206 232.368 259.348 232.51 259.524 232.51H261.355C261.531 232.51 261.673 232.368 261.673 232.192V231.348C261.673 231.172 261.531 231.03 261.355 231.03Z" fill="#E6E6E6"/>
<path d="M335.326 233.498H333.495C333.319 233.498 333.176 233.64 333.176 233.816V234.66C333.176 234.836 333.319 234.978 333.495 234.978H335.326C335.501 234.978 335.644 234.836 335.644 234.66V233.816C335.644 233.64 335.501 233.498 335.326 233.498Z" fill="#E6E6E6"/>
<path d="M302.259 236.459H283.155C282.979 236.459 282.837 236.602 282.837 236.778V237.621C282.837 237.797 282.979 237.94 283.155 237.94H302.259C302.435 237.94 302.578 237.797 302.578 237.621V236.778C302.578 236.602 302.435 236.459 302.259 236.459Z" fill="#E6E6E6"/>
<path d="M80.8174 168.195C70.4612 133.85 69.8126 99.4566 82.0236 64.9988C82.0793 60.6499 85.6444 57.1668 89.993 57.2127L167.921 58.1237C172.269 58.1795 175.752 61.745 175.706 66.094L174.5 169.291C174.444 173.639 170.879 177.123 166.531 177.077L88.6028 176.166C84.2543 176.11 80.7715 172.544 80.8174 168.195L80.8174 168.195Z" fill="#F2F2F2"/>
<path opacity="0.2" d="M96.9862 172.283C92.6378 172.227 89.1551 168.662 89.201 164.313C78.8447 129.968 78.1961 95.5742 90.407 61.1164C90.4314 59.7451 90.8176 58.4046 91.5264 57.2306L89.9929 57.2126C85.6444 57.1667 82.0794 60.6498 82.0234 64.9986C69.8125 99.4564 70.4611 133.85 80.8174 168.195C80.7715 172.544 84.2542 176.11 88.6026 176.165L166.531 177.077C169.348 177.1 171.962 175.612 173.381 173.176L96.9862 172.283Z" fill="black"/>
<path d="M154.387 115.782L102.165 115.316C100.434 115.299 99.0454 113.882 99.0628 112.151C99.0803 110.423 100.493 109.035 102.22 109.049L154.443 109.514C156.174 109.535 157.559 110.955 157.539 112.686C157.518 114.409 156.11 115.792 154.387 115.782L154.387 115.782Z" fill="white"/>
<path d="M113.807 98.2332L102.318 98.1307C100.587 98.1207 99.1925 96.7095 99.2024 94.9788C99.2124 93.2481 100.623 91.8531 102.354 91.8631L102.374 91.8633L113.863 91.9658C115.593 91.9866 116.979 93.4066 116.958 95.1372C116.937 96.8601 115.53 98.2431 113.807 98.2332V98.2332Z" fill="white"/>
<path d="M154.142 143.335L101.919 142.869C100.189 142.848 98.8027 141.428 98.8235 139.698C98.8443 137.975 100.252 136.592 101.975 136.602L154.198 137.068C155.928 137.077 157.323 138.489 157.313 140.219C157.303 141.95 155.892 143.345 154.161 143.335L154.142 143.335V143.335Z" fill="white"/>
<path d="M154.264 129.558L102.042 129.093C100.311 129.079 98.9192 127.665 98.9325 125.935C98.9459 124.204 100.36 122.812 102.09 122.825L102.098 122.825L154.32 123.291C156.051 123.312 157.437 124.732 157.416 126.462C157.395 128.185 155.987 129.568 154.264 129.558L154.264 129.558H154.264Z" fill="white"/>
<path d="M100.558 73.2508C104.283 73.2508 107.303 70.2307 107.303 66.5053C107.303 62.7799 104.283 59.7599 100.558 59.7599C96.8333 59.7599 93.8135 62.7799 93.8135 66.5053C93.8135 70.2307 96.8333 73.2508 100.558 73.2508Z" fill="#282837"/>
<path d="M157.351 74.9768C161.076 74.9768 164.095 71.9568 164.095 68.2314C164.095 64.506 161.076 61.486 157.351 61.486C153.626 61.486 150.606 64.506 150.606 68.2314C150.606 71.9568 153.626 74.9768 157.351 74.9768Z" fill="#282837"/>
<path d="M235.94 116.879C237.523 116.879 238.806 115.568 238.806 113.95C238.806 112.331 237.523 111.02 235.94 111.02C234.358 111.02 233.075 112.331 233.075 113.95C233.075 115.568 234.358 116.879 235.94 116.879Z" fill="#F2F2F2"/>
<path d="M245.839 116.879C247.422 116.879 248.705 115.568 248.705 113.95C248.705 112.331 247.422 111.02 245.839 111.02C244.257 111.02 242.974 112.331 242.974 113.95C242.974 115.568 244.257 116.879 245.839 116.879Z" fill="#F2F2F2"/>
<path d="M255.739 116.879C257.321 116.879 258.604 115.568 258.604 113.95C258.604 112.331 257.321 111.02 255.739 111.02C254.156 111.02 252.873 112.331 252.873 113.95C252.873 115.568 254.156 116.879 255.739 116.879Z" fill="#F2F2F2"/>
<path d="M267.026 116.265C266.938 116.265 266.85 116.231 266.784 116.163L264.851 114.186C264.722 114.055 264.722 113.844 264.851 113.712L266.784 111.736C266.915 111.602 267.13 111.6 267.263 111.731C267.397 111.862 267.399 112.076 267.269 112.21L265.567 113.949L267.269 115.689C267.399 115.823 267.397 116.038 267.263 116.168C267.197 116.233 267.112 116.265 267.026 116.265V116.265Z" fill="#F2F2F2"/>
<path d="M270.275 116.265C270.19 116.265 270.104 116.233 270.038 116.168C269.905 116.038 269.902 115.823 270.033 115.689L271.735 113.949L270.033 112.21C269.902 112.076 269.905 111.862 270.038 111.731C270.172 111.6 270.387 111.602 270.518 111.736L272.451 113.713C272.58 113.844 272.58 114.055 272.451 114.186L270.518 116.163C270.451 116.231 270.363 116.265 270.275 116.265V116.265Z" fill="#F2F2F2"/>
<path d="M349.062 111.359H345.467C345.057 111.359 344.725 111.691 344.725 112.101V115.7C344.725 116.11 345.057 116.442 345.467 116.442H349.062C349.472 116.442 349.808 116.11 349.808 115.7V112.101C349.808 111.691 349.472 111.359 349.062 111.359Z" fill="#F2F2F2"/>
<path d="M340.252 111.359H336.657C336.247 111.359 335.915 111.691 335.915 112.101V115.7C335.915 116.11 336.247 116.442 336.657 116.442H340.252C340.662 116.442 340.998 116.11 340.998 115.7V112.101C340.998 111.691 340.662 111.359 340.252 111.359Z" fill="#F2F2F2"/>
<path d="M357.364 111.528H353.769C353.359 111.528 353.027 111.861 353.027 112.271V115.87C353.027 116.28 353.359 116.612 353.769 116.612H357.364C357.774 116.612 358.11 116.28 358.11 115.87V112.271C358.11 111.861 357.774 111.528 357.364 111.528Z" fill="#F2F2F2"/>
<path d="M309.951 112.898H296.123C295.621 112.898 295.218 113.304 295.218 113.802C295.218 114.301 295.621 114.707 296.123 114.707H309.951C310.449 114.707 310.856 114.301 310.856 113.802C310.856 113.304 310.449 112.898 309.951 112.898Z" fill="#F2F2F2"/>
<path d="M261.541 27.78C259.917 22.3941 259.815 17.0006 261.73 11.597C261.739 10.9151 262.298 10.3688 262.98 10.376L275.2 10.5189C275.882 10.5276 276.428 11.0868 276.421 11.7688L276.232 27.9517C276.223 28.6337 275.664 29.1799 274.982 29.1727L262.762 29.0298C262.08 29.0211 261.534 28.462 261.541 27.78Z" fill="#F2F2F2"/>
<path opacity="0.2" d="M264.077 28.421C263.395 28.4123 262.848 27.8532 262.856 27.1712C261.232 21.7853 261.13 16.3918 263.045 10.9882C263.049 10.7732 263.109 10.563 263.22 10.3789L262.98 10.376C262.298 10.3689 261.739 10.915 261.73 11.597C259.815 17.0006 259.917 22.3941 261.541 27.78C261.534 28.462 262.08 29.0211 262.762 29.0298L274.982 29.1727C275.424 29.1764 275.834 28.943 276.056 28.5611L264.077 28.421Z" fill="black"/>
<path d="M235.654 27.78C234.03 22.3941 233.928 17.0006 235.843 11.597C235.851 10.9151 236.411 10.3688 237.092 10.376L249.313 10.5189C249.995 10.5276 250.541 11.0868 250.534 11.7688L250.345 27.9517C250.336 28.6337 249.777 29.1799 249.095 29.1727L236.874 29.0298C236.193 29.0211 235.646 28.462 235.654 27.78Z" fill="#F2F2F2"/>
<path opacity="0.2" d="M238.189 28.421C237.507 28.4123 236.961 27.8532 236.968 27.1712C235.344 21.7853 235.242 16.3918 237.157 10.9882C237.161 10.7732 237.222 10.563 237.333 10.3789L237.092 10.376C236.41 10.3689 235.851 10.915 235.843 11.597C233.928 17.0006 234.03 22.3941 235.654 27.78C235.646 28.462 236.192 29.0211 236.874 29.0298L249.095 29.1727C249.537 29.1764 249.947 28.943 250.169 28.5611L238.189 28.421Z" fill="black"/>
<path d="M214.944 27.78C213.32 22.3941 213.218 17.0006 215.133 11.597C215.141 10.9151 215.701 10.3688 216.382 10.376L228.603 10.5189C229.285 10.5276 229.831 11.0868 229.824 11.7688L229.635 27.9517C229.626 28.6337 229.067 29.1799 228.385 29.1727L216.164 29.0298C215.483 29.0211 214.936 28.462 214.944 27.78Z" fill="#F2F2F2"/>
<path opacity="0.2" d="M217.479 28.421C216.797 28.4123 216.251 27.8532 216.258 27.1712C214.634 21.7853 214.532 16.3918 216.447 10.9882C216.451 10.7732 216.512 10.563 216.623 10.3789L216.382 10.376C215.701 10.3689 215.141 10.915 215.133 11.597C213.218 17.0006 213.32 22.3941 214.944 27.78C214.936 28.462 215.483 29.0211 216.164 29.0298L228.385 29.1727C228.827 29.1764 229.237 28.943 229.459 28.5611L217.479 28.421Z" fill="black"/>
<path d="M223.366 16.4604C224.677 16.4604 225.739 15.3977 225.739 14.0867C225.739 12.7757 224.677 11.7129 223.366 11.7129C222.055 11.7129 220.992 12.7757 220.992 14.0867C220.992 15.3977 222.055 16.4604 223.366 16.4604Z" fill="#3F3D56"/>
<path d="M243.213 16.4604C244.524 16.4604 245.586 15.3977 245.586 14.0867C245.586 12.7757 244.524 11.7129 243.213 11.7129C241.902 11.7129 240.839 12.7757 240.839 14.0867C240.839 15.3977 241.902 16.4604 243.213 16.4604Z" fill="#3F3D56"/>
<path d="M268.237 16.4604C269.548 16.4604 270.611 15.3977 270.611 14.0867C270.611 12.7757 269.548 11.7129 268.237 11.7129C266.927 11.7129 265.864 12.7757 265.864 14.0867C265.864 15.3977 266.927 16.4604 268.237 16.4604Z" fill="#3F3D56"/>
<path d="M55.2266 192.451V221.793C55.2266 223.699 54.4544 225.423 53.2068 226.672C52.3638 227.516 50.912 226.88 50.912 225.688V188.545C50.912 187.363 52.3489 186.714 53.1879 187.547L53.2073 187.566C54.4499 188.817 55.2266 190.543 55.2266 192.451L55.2266 192.451Z" fill="#FF2564"/>
<path d="M525.515 191.003V220.345C525.515 222.252 526.287 223.976 527.535 225.225C528.378 226.069 529.83 225.433 529.83 224.24V187.097C529.83 185.916 528.393 185.267 527.554 186.099L527.534 186.118C526.292 187.37 525.515 189.096 525.515 191.003V191.003Z" fill="#FF2564"/>
<path d="M434.046 25.8903H374.505V96.6568H434.046V25.8903Z" fill="#3F3D56"/>
<path d="M377.957 93.2048H430.595V29.3423H377.957V93.2048Z" fill="white"/>
<path d="M404.138 34.5203C400.263 34.5203 396.63 35.5731 393.515 37.4027C389.08 40.009 385.68 44.1945 384.101 49.1914C383.471 51.1936 383.134 53.3165 383.134 55.5258V88.0267H425.417V34.5203H404.138Z" fill="#282837"/>
<path d="M415.219 88.0027H390.9C392.079 84.6659 394.589 81.9569 397.797 80.5293C399.405 79.8069 401.185 79.4027 403.06 79.4027C404.41 79.4027 405.717 79.6091 406.938 80.0047C410.799 81.2173 413.877 84.2014 415.219 88.0027Z" fill="#FF2564"/>
<path d="M386.586 74.2186C385.395 74.2186 384.23 74.3826 383.134 74.6846V88.0267H399.495C399.521 87.7419 399.53 87.4571 399.53 87.1637C399.53 84.7387 398.856 82.4603 397.7 80.5272C395.431 76.7472 391.306 74.2186 386.586 74.2186Z" fill="#FF2564"/>
<path d="M425.417 49.1673V37.9873C423.267 36.3705 420.584 35.4073 417.678 35.4073C413.198 35.4073 409.251 37.6949 406.938 41.1693C405.717 40.7737 404.41 40.5673 403.06 40.5673C401.185 40.5673 399.405 40.9715 397.797 41.6939C397.771 41.7053 397.748 41.7203 397.722 41.7318C397.715 41.7187 397.708 41.7049 397.7 41.6919C396.656 39.9572 395.224 38.4814 393.515 37.4027C389.08 40.009 385.68 44.1946 384.101 49.1914H390.91C393.082 55.061 395.323 58.8004 397.621 60.7892C392.863 63.0126 391.041 68.9163 393.532 73.5554C398.435 82.689 402.254 84.5854 405.527 82.8285C405.047 84.1781 404.779 85.6288 404.779 87.1426C404.779 87.435 404.788 87.7188 404.814 88.0026H425.417V76.8226C423.267 75.2059 420.584 74.2427 417.678 74.2427C415.329 74.2427 413.13 74.8761 411.233 75.975L411.274 75.9026C413.932 71.165 418.887 68.1776 424.319 68.1776H425.417V56.9976C423.267 55.3808 420.584 54.4176 417.678 54.4176C414.941 54.4176 412.405 55.2747 410.317 56.7314L410.401 56.6238C414.019 51.9691 419.522 49.1673 425.417 49.1673L425.417 49.1673Z" fill="#FF2564"/>
<path d="M402.981 38.8353H402.118V88.0267H402.981V38.8353Z" fill="#3F3D56"/>
<path d="M437.652 463.142L431.106 463.086L428.208 437.247L437.869 437.329L437.652 463.142Z" fill="#FFB6B6"/>
<path d="M416.685 473.551C416.671 475.163 417.97 476.489 419.587 476.504L432.601 476.612L434.879 471.994L435.716 476.636L440.627 476.681L439.387 460.123L437.678 460.01L430.71 459.529L428.461 459.379L428.422 464.063L417.967 471.155C417.172 471.695 416.693 472.591 416.685 473.551V473.551Z" fill="#282837"/>
<path d="M509.247 463.142L502.701 463.086L499.803 437.247L509.464 437.329L509.247 463.142Z" fill="#FFB6B6"/>
<path d="M488.28 473.551C488.266 475.163 489.565 476.489 491.182 476.504L504.196 476.612L506.474 471.994L507.311 476.636L512.222 476.681L510.982 460.123L509.273 460.01L502.305 459.529L500.056 459.379L500.017 464.063L489.562 471.155C488.767 471.695 488.288 472.591 488.28 473.551V473.551Z" fill="#282837"/>
<path d="M401.314 90.8136C404.066 93.3785 403.809 97.972 400.778 100.201L408.243 130.054L400.494 134.149L391.888 98.6274C390.376 96.2898 390.592 93.1413 392.594 91.0345C394.941 88.5654 398.845 88.4665 401.314 90.8136H401.314Z" fill="#FFB6B6"/>
<path d="M439.689 259.327H494.287C494.287 259.327 510.954 283.767 507.153 306.578L499.233 374.062L516.023 452.952L499.867 454.536L471.989 374.062L468.188 325.271L461.218 377.864L439.689 452.158L424.153 452.318L433.34 377.23L437.15 306.477C437.15 306.477 439.478 301.578 437.518 299.643C435.558 297.707 437.807 294.27 437.807 294.27C437.807 294.27 440.81 289.516 438.184 287.275C435.558 285.034 439.689 259.327 439.689 259.327Z" fill="#282837"/>
<path d="M513.434 279.331C513.434 279.331 464.015 266.024 465.915 281.232C466.757 287.964 439.191 283.709 430.682 282.708L438.988 246.698L425.214 281.967C422.705 281.574 421.146 281.27 421.146 281.27L439.305 236.876C439.305 236.876 441.206 193.788 437.309 183.225C433.413 172.662 443.107 168.442 443.107 168.442C452.682 161.337 457.254 154.318 453.187 147.449L474.152 149.255L476.053 159.571L493.882 168.252L485.194 219.642C485.194 219.642 484.064 220.889 484.81 221.913C485.557 222.936 485.686 223.751 484.354 224.611C483.022 225.471 483.643 228.816 483.643 228.816C483.643 228.816 483.707 230.885 484.948 231.029C486.19 231.173 485.767 232.418 485.767 232.418C485.767 232.418 485.686 234.929 486.888 234.319C487.696 233.908 505.63 268.393 506.998 267.842C508.366 267.292 507.894 271.359 509.08 271.543C510.266 271.727 510.274 273.672 510.786 274.587C512.42 277.504 513.434 279.331 513.434 279.331V279.331Z" fill="#FF2564"/>
<path d="M457.434 185.917L459.589 165.807L431.477 159.016L403.245 106.978L394.375 110.779V119.651C394.375 119.651 386.772 127.254 412.415 163.428L419.718 173.511L459.589 192.236L457.434 185.917V185.917Z" fill="#FF2564"/>
<path d="M433.283 66.2717C432.346 69.9153 435.037 73.6467 438.791 73.8919L448.583 103.064L457.317 102.339L445.433 67.7758C445.448 64.9921 443.57 62.4557 440.748 61.7597C437.441 60.944 434.098 62.9641 433.283 66.2718L433.283 66.2717Z" fill="#FFB6B6"/>
<path d="M493.311 175.483C500.474 170.79 501.355 160.63 495.106 154.774L464.959 126.524C464.959 126.524 466.096 82.2706 454.379 82.1627L451.847 74.2478L438.219 80.752L439.875 87.2936C439.875 87.2936 440.767 114.364 448.773 122.437C448.917 133.84 453.696 136.863 453.696 136.863L493.311 175.483Z" fill="#FF2564"/>
<path d="M466.229 146.656C476.15 146.656 484.192 138.613 484.192 128.691C484.192 118.77 476.15 110.727 466.229 110.727C456.309 110.727 448.267 118.77 448.267 128.691C448.267 138.613 456.309 146.656 466.229 146.656Z" fill="#FFB6B6"/>
<path d="M509.875 177.303C509.746 179.883 508.512 182.36 506.225 183.543C505.501 183.905 504.741 184.181 503.956 184.38C503.93 184.121 503.887 183.871 503.844 183.62C503.128 179.374 501.35 175.327 498.752 171.909C497.519 170.287 500.936 179.487 501.799 184.665C501.013 183.094 497.018 173.014 496.759 172.634C496.759 172.652 496.776 172.703 496.811 172.815C498.105 176.725 498.692 180.867 498.597 184.992C493.592 192.129 489.234 194.054 485.222 193.252C486.43 189.989 486.301 186.209 484.67 183.12C484.221 186.158 482.642 188.98 480.381 191.051C478.483 189.73 476.636 187.978 474.798 186.123C477.689 182.645 479.691 178.442 480.519 173.998C481.701 167.776 480.571 161.139 477.404 155.659C478.931 166.783 474.677 178.477 466.574 186.209C464.659 185.916 462.933 185.156 462.165 183.448C461.449 181.842 461.932 179.944 462.838 178.442C463.727 176.94 460.612 169.683 461.656 168.285C466.022 162.468 470.173 159.672 465.496 154.105C463.347 151.542 460.353 149.575 459.067 146.485C457.445 142.593 459.007 138.149 460.888 134.386C462.778 130.615 469.068 132.375 464.857 132.03C457.617 131.443 460.776 125.566 459.188 123.115C458.299 121.743 456.107 121.967 454.468 121.95C453.89 120.008 453.078 118.127 452.06 116.366C452.319 118.273 452.414 120.207 452.345 122.131C451.033 122.355 448.902 124.556 447.772 125.264L447.357 125.462C445.761 124.547 445.998 122.837 445.989 120.99C445.972 119.144 442.417 117.375 443.4 115.812C446.015 111.679 445.174 109.35 450.024 108.72C454.873 108.09 459.386 106.252 462.967 109.583C466.419 102.679 479.855 108.772 483.099 110.075C486.344 111.386 488.959 114.166 490.063 117.479C492.634 125.16 491.332 128.698 495.758 135.473C499.547 141.272 504.905 138.537 507.416 144.992C508.995 149.066 507.114 153.57 505.44 157.601C503.766 161.639 500.306 170.83 504.62 170.175C508.296 169.605 510.083 173.264 509.875 177.303V177.303Z" fill="#282837"/>
<path d="M526.83 463.042C528.613 463.153 529.598 460.938 528.249 459.647L528.115 459.114C528.133 459.071 528.15 459.028 528.168 458.985C529.971 454.686 536.081 454.716 537.869 459.022C539.455 462.843 541.475 466.671 541.973 470.712C542.196 472.495 542.095 474.313 541.699 476.063C545.417 467.941 547.373 459.073 547.373 450.155C547.373 447.914 547.251 445.673 547 443.438C546.794 441.61 546.509 439.793 546.141 437.992C544.152 428.26 539.843 418.99 533.629 411.248C530.642 409.615 528.15 407.062 526.646 404.002C526.105 402.898 525.681 401.711 525.481 400.501C525.821 400.546 526.763 395.367 526.506 395.05C526.98 394.331 527.828 393.973 528.345 393.272C530.919 389.782 534.465 390.391 536.316 395.133C540.27 397.129 540.308 400.439 537.882 403.622C536.338 405.648 536.126 408.388 534.772 410.557C534.911 410.735 535.056 410.908 535.195 411.086C537.75 414.364 539.96 417.887 541.823 421.588C541.297 417.474 542.074 412.519 543.399 409.325C544.908 405.685 547.735 402.62 550.225 399.474C553.216 395.694 559.349 397.344 559.876 402.134C559.881 402.181 559.886 402.227 559.891 402.274C559.521 402.482 559.159 402.704 558.805 402.938C556.786 404.273 557.484 407.403 559.876 407.772L559.93 407.781C559.796 409.113 559.568 410.434 559.234 411.733C562.428 424.087 555.532 428.587 545.685 428.789C545.467 428.901 545.255 429.012 545.038 429.118C546.036 431.927 546.833 434.809 547.423 437.73C547.953 440.311 548.321 442.919 548.527 445.539C548.783 448.845 548.761 452.167 548.482 455.467L548.499 455.35C549.207 451.715 551.18 448.321 554.045 445.969C558.312 442.462 564.342 441.171 568.946 438.353C571.162 436.997 574.002 438.75 573.615 441.319L573.596 441.442C572.911 441.721 572.242 442.044 571.595 442.407C571.226 442.615 570.863 442.837 570.509 443.071C568.491 444.406 569.188 447.536 571.58 447.906L571.634 447.914C571.673 447.919 571.707 447.925 571.746 447.931C570.57 450.723 568.931 453.315 566.88 455.55C564.883 466.335 556.304 467.359 547.128 464.218H547.122C546.119 468.588 544.653 472.858 542.77 476.927H527.22C527.164 476.754 527.114 476.576 527.064 476.403C528.502 476.492 529.951 476.408 531.366 476.146C530.213 474.731 529.059 473.304 527.905 471.888C527.877 471.86 527.855 471.832 527.833 471.804C527.248 471.08 526.657 470.361 526.072 469.636L526.071 469.635C526.035 467.411 526.301 465.194 526.829 463.042L526.83 463.042Z" fill="#F2F2F2"/>
<path d="M353.076 476.973C353.076 477.543 353.533 478 354.102 478H572.67C573.24 478 573.697 477.543 573.697 476.973C573.697 476.403 573.24 475.946 572.67 475.946H354.102C353.533 475.946 353.076 476.403 353.076 476.973Z" fill="#CCCCCC"/>
</svg>
